<svg width="224" height="263" viewBox="0 0 224 263" fill="none" xmlns="http://www.w3.org/2000/svg">
<path d="M16.2427 228.523C15.7818 228.659 15.2937 228.781 14.7785 228.889C14.3175 228.971 13.7887 229.038 13.1922 229.093C12.6227 229.174 11.9991 229.215 11.3212 229.215C10.3179 229.215 9.26035 229.079 8.1486 228.808C7.06395 228.564 6.06066 228.103 5.13871 227.425C4.24388 226.72 3.49819 225.771 2.90164 224.578C2.3322 223.385 2.04748 221.839 2.04748 219.941C2.04748 217.175 2.88808 214.328 4.56928 211.399C6.25047 208.444 8.59601 205.542 11.6059 202.695C11.4432 202.234 11.2805 201.8 11.1178 201.394C10.9551 200.96 10.7789 200.512 10.589 200.051H19.6187C20.3508 202.519 21.083 205.258 21.8151 208.268C22.4388 210.844 23.1031 213.853 23.8081 217.297C24.5131 220.741 25.1504 224.483 25.7198 228.523H18.4798C18.1273 226.408 17.6934 224.117 17.1782 221.649C16.7173 219.534 16.1207 217.107 15.3886 214.369C14.6565 211.63 13.7616 208.742 12.7041 205.705C10.6704 208.064 9.17901 210.206 8.22994 212.132C7.28088 214.03 6.80635 215.752 6.80635 217.297C6.80635 218.084 6.91482 218.816 7.13174 219.494C7.37579 220.172 7.71474 220.768 8.1486 221.283C8.58245 221.771 9.12477 222.165 9.77556 222.463C10.4263 222.734 11.172 222.87 12.0126 222.87C12.4736 222.87 13.0702 222.815 13.8023 222.707C14.5615 222.571 15.375 222.354 16.2427 222.056V228.523ZM36.7132 208.43C36.659 209.461 36.6183 210.627 36.5912 211.928C36.537 213.067 36.4963 214.423 36.4692 215.996C36.4692 217.541 36.4692 219.277 36.4692 221.202C36.4692 222.395 36.5912 223.358 36.8353 224.09C37.1064 224.795 37.4454 225.351 37.8521 225.757C38.2589 226.164 38.7063 226.435 39.1944 226.571C39.7096 226.707 40.2112 226.774 40.6993 226.774C41.323 226.774 41.8924 226.707 42.4076 226.571C42.9499 226.408 43.3296 226.286 43.5465 226.205C43.6007 225.663 43.6414 225.039 43.6685 224.334C43.6956 223.629 43.7092 222.829 43.7092 221.934C43.7092 220.172 43.6007 218.111 43.3838 215.752C43.194 213.393 42.8008 210.952 42.2042 208.43H51.3152C51.3424 208.918 51.3695 209.488 51.3966 210.139C51.4237 210.681 51.4508 211.359 51.4779 212.172C51.5051 212.959 51.5186 213.853 51.5186 214.857C51.5186 216.646 51.4644 218.707 51.3559 221.039C51.2474 223.344 51.017 225.839 50.6645 228.523C49.3629 228.632 48.2647 228.727 47.3699 228.808C46.475 228.889 45.648 228.957 44.8887 229.011C44.1566 229.093 43.4245 229.147 42.6923 229.174C41.9602 229.201 41.106 229.215 40.1299 229.215C37.9063 229.215 36.0489 228.984 34.5575 228.523C33.0932 228.089 31.9137 227.493 31.0189 226.734C30.124 225.974 29.4868 225.093 29.1072 224.09C28.7276 223.059 28.5378 221.961 28.5378 220.795C28.5378 218.843 28.6191 216.89 28.7818 214.938C28.9445 212.986 29.1614 210.816 29.4326 208.43H36.7132ZM55.288 208.715C57.5115 208.146 59.5452 207.698 61.3891 207.373C63.2601 207.047 64.9277 206.885 66.392 206.885C69.1036 206.885 71.1508 207.495 72.5338 208.715C73.9167 209.935 74.6081 211.955 74.6081 214.775C74.6081 216.89 74.5404 219.06 74.4048 221.283C74.2692 223.48 74.0658 225.893 73.7947 228.523H66.5953C66.6225 228.388 66.636 228.225 66.636 228.035C66.636 227.872 66.636 227.683 66.636 227.466C66.636 227.249 66.6496 226.991 66.6767 226.693C65.8361 227.615 64.887 228.266 63.8295 228.645C62.772 229.025 61.7687 229.215 60.8196 229.215C59.0571 229.215 57.6471 228.74 56.5895 227.791C55.5591 226.815 55.0439 225.513 55.0439 223.886C55.0439 223.073 55.2337 222.232 55.6133 221.365C55.993 220.47 56.6302 219.589 57.525 218.721C58.4199 217.853 59.613 216.999 61.1043 216.158C62.6228 215.318 64.5074 214.531 66.758 213.799C66.6496 212.633 66.3513 211.82 65.8632 211.359C65.4022 210.871 64.8464 210.627 64.1956 210.627C63.4363 210.627 62.6228 210.844 61.7551 211.277C60.8874 211.711 60.0739 212.186 59.3147 212.701C58.4199 213.325 57.5386 214.016 56.6709 214.775L55.288 208.715ZM66.758 222.137C66.7852 221.27 66.7987 220.361 66.7987 219.412C66.8258 218.436 66.8394 217.406 66.8394 216.321C66.1886 216.538 65.47 216.809 64.6837 217.135C63.8973 217.46 63.1652 217.853 62.4873 218.314C61.8365 218.748 61.2806 219.25 60.8196 219.819C60.3587 220.361 60.1282 220.971 60.1282 221.649C60.1282 222.354 60.318 222.856 60.6976 223.154C61.0772 223.425 61.5382 223.561 62.0805 223.561C62.7855 223.561 63.5584 223.412 64.3989 223.114C65.2395 222.815 66.0259 222.49 66.758 222.137ZM79.0375 228.523C79.2544 226.571 79.3629 224.483 79.3629 222.259C79.3629 220.361 79.268 218.219 79.0782 215.833C78.8884 213.447 78.4816 210.979 77.8579 208.43H86.9283C87.0638 210.193 87.1452 212.132 87.1723 214.247C87.1994 216.063 87.1452 218.192 87.0096 220.633C86.9011 223.073 86.6571 225.703 86.2775 228.523H79.0375ZM82.5355 197.123L87.335 202.044L82.5355 206.803L77.6546 202.044L82.5355 197.123ZM91.6868 228.523C91.9037 226.571 92.0122 224.483 92.0122 222.259C92.0122 220.361 91.9173 218.219 91.7275 215.833C91.5377 213.447 91.1445 210.979 90.5479 208.43C92.663 208.186 94.4933 207.969 96.0389 207.78C97.5846 207.59 98.8861 207.427 99.9437 207.291C101.028 207.156 101.91 207.061 102.587 207.007C103.265 206.925 103.794 206.885 104.174 206.885C105.719 206.858 107.102 207.074 108.323 207.535C109.543 207.969 110.573 208.566 111.414 209.325C112.254 210.084 112.892 210.979 113.325 212.01C113.759 213.013 113.976 214.084 113.976 215.223C113.976 217.257 113.895 219.372 113.732 221.568C113.597 223.764 113.407 226.083 113.163 228.523H105.923C105.95 227.412 105.991 226.164 106.045 224.781C106.099 223.588 106.14 222.192 106.167 220.592C106.194 218.965 106.207 217.175 106.207 215.223C106.207 213.569 105.95 212.335 105.435 211.522C104.947 210.708 104.35 210.166 103.645 209.895C102.94 209.596 102.208 209.488 101.449 209.569C100.716 209.651 100.106 209.773 99.6183 209.935C99.6725 210.667 99.7132 211.657 99.7403 212.904C99.7945 214.125 99.8081 215.548 99.781 217.175C99.781 218.775 99.7132 220.538 99.5776 222.463C99.442 224.388 99.2386 226.408 98.9675 228.523H91.6868ZM126.82 228.523C125.22 228.523 123.864 228.388 122.752 228.117C121.668 227.818 120.786 227.357 120.108 226.734C119.431 226.11 118.942 225.31 118.644 224.334C118.346 223.331 118.197 222.11 118.197 220.673C118.197 219.67 118.21 218.762 118.237 217.948C118.265 217.135 118.292 216.348 118.319 215.589C118.346 214.803 118.373 214.016 118.4 213.23C118.427 212.416 118.441 211.535 118.441 210.586H117.221V208.43H118.4C118.346 207.129 118.305 205.773 118.278 204.363C118.278 202.953 118.224 201.516 118.115 200.051H126.291C126.291 201.245 126.291 202.546 126.291 203.956C126.291 205.366 126.264 206.858 126.21 208.43H128.731V210.586H126.128C126.101 211.21 126.06 211.928 126.006 212.742C125.979 213.555 125.925 214.409 125.844 215.304C125.789 216.199 125.721 217.094 125.64 217.989C125.586 218.884 125.518 219.724 125.437 220.51C125.328 221.514 125.138 222.259 124.867 222.748C124.596 223.209 124.311 223.547 124.013 223.764C123.742 223.981 123.498 224.171 123.281 224.334C123.064 224.469 122.956 224.713 122.956 225.066C122.956 225.391 123.105 225.622 123.403 225.757C123.701 225.893 124.054 225.974 124.461 226.001C124.867 226.001 125.288 225.947 125.721 225.839C126.155 225.73 126.521 225.581 126.82 225.391V228.523Z" fill="#7DFE9D"/>
<path d="M50.0021 250.978C48.8362 250.978 47.8464 250.693 47.0329 250.124C46.2466 249.527 45.8534 248.673 45.8534 247.561C45.8534 246.368 46.1381 245.256 46.7075 244.226C47.3041 243.195 48.0769 242.301 49.026 241.541C49.975 240.755 51.0054 240.145 52.1172 239.711C53.2561 239.277 54.3814 239.06 55.4931 239.06C56.6049 239.06 57.4184 239.264 57.9336 239.67C58.4759 240.077 58.7471 240.565 58.7471 241.135C58.7471 241.514 58.6386 241.894 58.4217 242.274C58.2048 242.626 57.9065 242.802 57.5268 242.802C57.2828 242.802 57.1608 242.707 57.1608 242.518C57.1608 242.382 57.2015 242.26 57.2828 242.152C57.6082 241.582 57.7709 241.08 57.7709 240.647C57.7709 240.104 57.4862 239.833 56.9167 239.833C56.4558 239.833 55.8592 240.009 55.1271 240.362C54.5305 240.633 53.8933 241.053 53.2154 241.623C52.5646 242.165 51.9545 242.802 51.3851 243.534C50.8156 244.239 50.3411 244.972 49.9615 245.731C49.609 246.463 49.4327 247.154 49.4327 247.805C49.4327 248.429 49.609 248.944 49.9615 249.351C50.314 249.758 50.8427 249.961 51.5478 249.961C52.0087 249.961 52.5511 249.852 53.1747 249.636C53.8255 249.419 54.5441 249.066 55.3304 248.578C55.9812 248.171 56.6591 247.683 57.3642 247.114C58.0963 246.544 58.8013 245.961 59.4792 245.365C60.1571 244.768 60.7401 244.253 61.2282 243.819C61.3909 243.656 61.5265 243.575 61.6349 243.575C61.7434 243.575 61.7976 243.643 61.7976 243.778C61.7976 243.968 61.7163 244.131 61.5536 244.267C60.8486 244.917 60.0758 245.622 59.2352 246.382C58.3946 247.114 57.5133 247.805 56.5913 248.456C55.6965 249.107 54.8152 249.636 53.9475 250.042C52.5375 250.666 51.2224 250.978 50.0021 250.978ZM61.3041 250.612C60.4635 250.612 59.8128 250.354 59.3518 249.839C58.8908 249.297 58.6603 248.605 58.6603 247.765C58.6603 246.978 58.8637 246.11 59.2704 245.161C59.7043 244.212 60.3822 243.25 61.3041 242.274C62.2532 241.243 63.4327 240.416 64.8428 239.792C66.2528 239.142 67.5951 238.816 68.8695 238.816C69.8999 238.816 70.7812 239.047 71.5133 239.508C72.2455 239.942 72.7336 240.497 72.9776 241.175C73.2759 241.175 73.6419 241.257 74.0758 241.419C74.5368 241.582 74.7673 241.88 74.7673 242.314C74.7673 242.612 74.6181 242.951 74.3198 243.331C74.13 243.602 73.7911 244.009 73.303 244.551C72.842 245.094 72.4082 245.677 72.0014 246.3C71.676 246.788 71.4184 247.249 71.2286 247.683C71.0388 248.09 70.9439 248.442 70.9439 248.741C70.9439 249.147 71.1473 249.351 71.554 249.351C72.015 249.351 72.7064 249.093 73.6284 248.578C74.6317 248.009 75.5943 247.358 76.5162 246.626C77.4382 245.894 78.1568 245.311 78.672 244.877C78.8076 244.768 78.9025 244.714 78.9567 244.714C79.0652 244.714 79.1194 244.782 79.1194 244.917C79.1194 245.08 79.0516 245.229 78.916 245.365C78.672 245.582 78.1974 245.988 77.4924 246.585C76.7874 247.182 75.9739 247.805 75.052 248.456C74.1571 249.107 73.2759 249.636 72.4082 250.042C71.9743 250.232 71.5676 250.381 71.1879 250.49C70.8354 250.571 70.51 250.612 70.2118 250.612C69.4796 250.612 68.9237 250.408 68.5441 250.002C68.1645 249.568 67.9747 249.012 67.9747 248.334C67.9747 248.063 68.0154 247.778 68.0967 247.48C68.1781 247.182 68.273 246.883 68.3814 246.585L68.6661 245.894C67.9611 246.761 67.2561 247.493 66.5511 248.09C65.8461 248.659 65.1411 249.161 64.436 249.595C63.8395 249.947 63.2701 250.205 62.7277 250.368C62.2125 250.53 61.738 250.612 61.3041 250.612ZM62.565 249.554C63.0531 249.554 63.7581 249.269 64.6801 248.7C65.602 248.103 66.6731 247.195 67.8933 245.975C68.056 245.812 68.3543 245.527 68.7882 245.121C69.2491 244.687 69.7372 244.212 70.2524 243.697C70.7676 243.155 71.2015 242.626 71.554 242.111C71.9336 241.569 72.1234 241.121 72.1234 240.769C72.1234 240.253 71.676 239.996 70.7812 239.996C69.9948 239.996 69.0458 240.308 67.934 240.931C66.8494 241.528 65.8054 242.423 64.8021 243.616C63.7717 244.836 63.0124 245.894 62.5244 246.788C62.0634 247.656 61.8329 248.32 61.8329 248.781C61.8329 249.297 62.0769 249.554 62.565 249.554ZM80.2821 251.263C79.4144 251.263 78.75 251.005 78.2891 250.49C77.8281 249.974 77.5976 249.256 77.5976 248.334C77.5976 247.466 77.8281 246.449 78.2891 245.283L78.3704 245.08L77.6383 245.772C77.5298 245.88 77.4078 245.934 77.2722 245.934C77.1366 245.934 77.0688 245.88 77.0688 245.772C77.0688 245.636 77.1637 245.473 77.3536 245.283C78.0586 244.66 78.7772 244.009 79.5093 243.331C80.2685 242.626 80.9058 241.962 81.421 241.338C81.2312 241.419 81.0278 241.46 80.8109 241.46C80.5939 241.46 80.4312 241.406 80.3228 241.297C80.133 241.162 80.038 240.918 80.038 240.565C80.038 240.267 80.1736 239.955 80.4448 239.63C80.7431 239.304 81.3396 239.02 82.2344 238.776C82.4243 238.721 82.6141 238.681 82.8039 238.654C83.0208 238.626 83.2242 238.599 83.414 238.572C84.2817 237.352 85.041 236.227 85.6917 235.196C86.3425 234.139 86.8577 233.434 87.2374 233.081C87.4001 232.891 87.6848 232.729 88.0915 232.593C88.5254 232.458 88.9728 232.349 89.4338 232.268C89.9219 232.186 90.3015 232.146 90.5726 232.146C91.4675 232.146 91.9149 232.227 91.9149 232.39C91.9149 232.498 91.7115 232.756 91.3048 233.163C90.6269 233.813 89.8269 234.627 88.905 235.603C88.0102 236.552 87.0882 237.582 86.1392 238.694C86.9255 238.803 87.6441 239.006 88.2949 239.304C88.9728 239.603 89.4609 239.982 89.7592 240.443C89.8676 240.579 89.9219 240.741 89.9219 240.931C89.9219 241.148 89.8541 241.257 89.7185 241.257C89.61 241.257 89.488 241.189 89.3524 241.053C88.783 240.484 87.8339 240.199 86.5052 240.199C86.2341 240.199 85.9493 240.213 85.6511 240.24C85.3799 240.267 85.0952 240.308 84.7969 240.362C83.875 241.555 83.0344 242.748 82.2751 243.941C81.5159 245.134 80.9736 246.246 80.6482 247.276C80.4855 247.765 80.4041 248.212 80.4041 248.619C80.4041 249.025 80.499 249.364 80.6888 249.636C80.8786 249.88 81.1634 250.002 81.543 250.002C81.787 250.002 82.0853 249.934 82.4378 249.798C82.953 249.608 83.5496 249.297 84.2275 248.863C84.9054 248.402 85.5833 247.887 86.2612 247.317C86.9662 246.748 87.617 246.192 88.2135 245.649C88.8372 245.107 89.3524 244.646 89.7592 244.267C90.1659 243.887 90.3964 243.67 90.4506 243.616C90.532 243.534 90.5998 243.494 90.654 243.494C90.7624 243.494 90.8167 243.575 90.8167 243.738C90.8167 243.928 90.7353 244.104 90.5726 244.267C90.3015 244.538 89.8812 244.944 89.3117 245.487C88.7694 246.029 88.1322 246.639 87.4001 247.317C86.695 247.968 85.9358 248.592 85.1223 249.188C84.3088 249.785 83.4818 250.273 82.6412 250.652C81.8277 251.059 81.0413 251.263 80.2821 251.263ZM90.3416 250.612C89.501 250.612 88.8502 250.354 88.3893 249.839C87.9283 249.297 87.6978 248.605 87.6978 247.765C87.6978 246.978 87.9012 246.11 88.3079 245.161C88.7418 244.212 89.4197 243.25 90.3416 242.274C91.2907 241.243 92.4702 240.416 93.8803 239.792C95.2903 239.142 96.6325 238.816 97.907 238.816C98.9374 238.816 99.8187 239.047 100.551 239.508C101.283 239.942 101.771 240.497 102.015 241.175C102.313 241.175 102.679 241.257 103.113 241.419C103.574 241.582 103.805 241.88 103.805 242.314C103.805 242.612 103.656 242.951 103.357 243.331C103.168 243.602 102.829 244.009 102.34 244.551C101.88 245.094 101.446 245.677 101.039 246.3C100.714 246.788 100.456 247.249 100.266 247.683C100.076 248.09 99.9814 248.442 99.9814 248.741C99.9814 249.147 100.185 249.351 100.591 249.351C101.052 249.351 101.744 249.093 102.666 248.578C103.669 248.009 104.632 247.358 105.554 246.626C106.476 245.894 107.194 245.311 107.709 244.877C107.845 244.768 107.94 244.714 107.994 244.714C108.103 244.714 108.157 244.782 108.157 244.917C108.157 245.08 108.089 245.229 107.953 245.365C107.709 245.582 107.235 245.988 106.53 246.585C105.825 247.182 105.011 247.805 104.089 248.456C103.195 249.107 102.313 249.636 101.446 250.042C101.012 250.232 100.605 250.381 100.225 250.49C99.8729 250.571 99.5475 250.612 99.2492 250.612C98.5171 250.612 97.9612 250.408 97.5816 250.002C97.202 249.568 97.0122 249.012 97.0122 248.334C97.0122 248.063 97.0528 247.778 97.1342 247.48C97.2155 247.182 97.3104 246.883 97.4189 246.585L97.7036 245.894C96.9986 246.761 96.2936 247.493 95.5886 248.09C94.8836 248.659 94.1785 249.161 93.4735 249.595C92.877 249.947 92.3075 250.205 91.7652 250.368C91.25 250.53 90.7755 250.612 90.3416 250.612ZM91.6025 249.554C92.0906 249.554 92.7956 249.269 93.7176 248.7C94.6395 248.103 95.7106 247.195 96.9308 245.975C97.0935 245.812 97.3918 245.527 97.8257 245.121C98.2866 244.687 98.7747 244.212 99.2899 243.697C99.8051 243.155 100.239 242.626 100.591 242.111C100.971 241.569 101.161 241.121 101.161 240.769C101.161 240.253 100.714 239.996 99.8187 239.996C99.0323 239.996 98.0833 240.308 96.9715 240.931C95.8869 241.528 94.8429 242.423 93.8396 243.616C92.8092 244.836 92.0499 245.894 91.5618 246.788C91.1009 247.656 90.8704 248.32 90.8704 248.781C90.8704 249.297 91.1144 249.554 91.6025 249.554ZM110.377 250.774C109.292 250.774 108.533 250.517 108.099 250.002C107.665 249.459 107.449 248.836 107.449 248.131C107.449 247.453 107.571 246.734 107.815 245.975C108.086 245.216 108.384 244.497 108.709 243.819C108.357 244.199 108.018 244.551 107.693 244.877C107.367 245.175 107.096 245.419 106.879 245.609C106.771 245.69 106.662 245.731 106.554 245.731C106.418 245.731 106.35 245.663 106.35 245.527C106.35 245.392 106.432 245.27 106.594 245.161C107.164 244.673 107.828 244.009 108.587 243.168C109.347 242.328 110.052 241.474 110.702 240.606C111.245 239.901 111.896 239.02 112.655 237.962C113.414 236.905 114.187 235.793 114.973 234.627C115.76 233.434 116.438 232.349 117.007 231.373C117.088 231.21 117.17 231.007 117.251 230.763C117.359 230.519 117.414 230.302 117.414 230.112C117.414 229.841 117.305 229.705 117.088 229.705C117.034 229.705 116.871 229.759 116.6 229.868C116.356 229.976 116.112 230.085 115.868 230.193C115.624 230.302 115.475 230.356 115.421 230.356C115.204 230.356 115.217 230.234 115.461 229.99C115.895 229.665 116.438 229.353 117.088 229.054C117.766 228.729 118.458 228.458 119.163 228.241C119.868 228.024 120.464 227.916 120.952 227.916C122.091 227.916 122.661 228.282 122.661 229.014C122.661 229.393 122.484 229.895 122.132 230.519C121.834 231.007 121.4 231.59 120.83 232.268C120.261 232.918 119.624 233.624 118.919 234.383C118.241 235.115 117.576 235.847 116.926 236.579C116.275 237.284 115.733 237.908 115.299 238.45C115.19 238.586 114.919 238.938 114.485 239.508C114.078 240.077 113.604 240.769 113.062 241.582C112.546 242.368 112.018 243.209 111.475 244.104C110.96 244.972 110.526 245.812 110.174 246.626C109.848 247.412 109.686 248.076 109.686 248.619C109.686 249.351 110.038 249.717 110.743 249.717C111.204 249.717 111.787 249.581 112.492 249.31C113.17 249.066 113.875 248.7 114.607 248.212C115.366 247.697 116.099 247.154 116.804 246.585C117.536 246.016 118.173 245.473 118.715 244.958C119.285 244.443 119.705 244.05 119.976 243.778C120.139 243.616 120.274 243.534 120.383 243.534C120.491 243.534 120.546 243.602 120.546 243.738C120.546 243.873 120.478 244.009 120.342 244.145C119.908 244.606 119.312 245.202 118.553 245.934C117.82 246.666 116.993 247.412 116.071 248.171C115.177 248.903 114.241 249.527 113.265 250.042C112.289 250.53 111.326 250.774 110.377 250.774ZM120.909 250.937C119.852 250.937 119.052 250.68 118.51 250.164C117.994 249.622 117.737 248.931 117.737 248.09C117.737 247.575 117.805 247.073 117.94 246.585C118.076 246.097 118.225 245.663 118.388 245.283C118.198 245.473 118.008 245.649 117.818 245.812C117.656 245.948 117.52 246.056 117.411 246.138C117.303 246.219 117.208 246.26 117.127 246.26C117.018 246.26 116.964 246.192 116.964 246.056C116.964 245.866 117.1 245.649 117.371 245.405C118.32 244.619 119.066 243.928 119.608 243.331C120.15 242.707 120.72 242.138 121.316 241.623C122.32 240.755 123.391 240.077 124.529 239.589C125.668 239.101 126.807 238.857 127.946 238.857C129.139 238.857 130.075 239.142 130.753 239.711C131.43 240.281 131.769 241.121 131.769 242.233C131.769 242.857 131.58 243.575 131.2 244.389C130.848 245.202 130.278 246.043 129.492 246.91C129.166 247.263 128.8 247.615 128.393 247.968C127.987 248.293 127.634 248.537 127.336 248.7C128.665 248.564 129.912 248.103 131.078 247.317C132.244 246.504 133.288 245.704 134.21 244.917C134.345 244.836 134.44 244.795 134.495 244.795C134.63 244.795 134.698 244.863 134.698 244.999C134.698 245.107 134.63 245.229 134.495 245.365C133.329 246.477 132.068 247.412 130.712 248.171C129.383 248.931 127.905 249.297 126.278 249.269C125.329 249.785 124.394 250.191 123.472 250.49C122.577 250.788 121.723 250.937 120.909 250.937ZM122.74 249.798C123.119 249.798 123.526 249.73 123.96 249.595C124.394 249.459 124.828 249.283 125.262 249.066C125.099 249.066 124.936 248.985 124.774 248.822C124.638 248.659 124.57 248.442 124.57 248.171C124.57 247.629 124.774 247.073 125.18 246.504C125.587 245.934 126.089 245.446 126.685 245.039C127.282 244.633 127.865 244.429 128.434 244.429C128.76 244.429 129.058 244.524 129.329 244.714C129.627 244.877 129.79 245.107 129.817 245.405C130.278 244.89 130.59 244.334 130.753 243.738C130.942 243.141 131.037 242.585 131.037 242.07C131.037 241.365 130.807 240.836 130.346 240.484C129.912 240.104 129.315 239.914 128.556 239.914C127.824 239.914 127.011 240.172 126.116 240.687C125.248 241.202 124.421 241.867 123.635 242.68C122.875 243.494 122.238 244.375 121.723 245.324C121.235 246.273 120.991 247.182 120.991 248.049C120.991 249.215 121.574 249.798 122.74 249.798ZM129.59 261.431C127.936 261.431 126.566 261.241 125.482 260.862C124.397 260.482 123.529 259.967 122.879 259.316C122.445 258.855 122.038 258.245 121.658 257.486C121.279 256.754 121.089 256.13 121.089 255.615C121.089 255.425 121.13 255.33 121.211 255.33C121.401 255.33 121.523 255.438 121.577 255.655C121.577 255.737 121.672 256.048 121.862 256.591C122.025 257.133 122.336 257.73 122.797 258.38C123.258 259.031 123.936 259.601 124.831 260.089C125.726 260.577 126.892 260.821 128.329 260.821C130.037 260.821 131.569 260.414 132.925 259.601C134.281 258.814 135.488 257.77 136.545 256.469C137.63 255.194 138.62 253.798 139.514 252.279C140.409 250.761 141.263 249.269 142.077 247.805C142.89 246.341 143.717 245.053 144.558 243.941C144.205 244.321 143.758 244.795 143.216 245.365C142.701 245.907 142.145 246.463 141.548 247.032C140.952 247.602 140.382 248.117 139.84 248.578C139.297 249.039 138.85 249.378 138.498 249.595C137.901 249.947 137.332 250.205 136.789 250.368C136.274 250.53 135.799 250.612 135.366 250.612C134.525 250.612 133.874 250.354 133.413 249.839C132.952 249.297 132.722 248.605 132.722 247.765C132.722 246.978 132.925 246.11 133.332 245.161C133.766 244.212 134.444 243.25 135.366 242.274C136.315 241.243 137.494 240.416 138.904 239.792C140.314 239.142 141.657 238.816 142.931 238.816C143.392 238.816 143.839 238.87 144.273 238.979C144.707 239.06 145.1 239.209 145.453 239.426C145.941 239.725 146.293 240.009 146.51 240.281C146.754 240.525 146.931 240.823 147.039 241.175C147.202 241.175 147.459 241.257 147.812 241.419C148.164 241.555 148.49 241.731 148.788 241.948C149.086 242.138 149.235 242.341 149.235 242.558C149.235 242.667 149.127 242.789 148.91 242.924C148.368 243.195 147.758 243.846 147.08 244.877C146.402 245.88 145.643 247.087 144.802 248.497C143.989 249.88 143.067 251.317 142.036 252.808C141.033 254.327 139.908 255.737 138.66 257.038C137.413 258.34 136.03 259.397 134.511 260.211C133.02 261.024 131.38 261.431 129.59 261.431ZM136.504 249.554C137.047 249.554 137.711 249.283 138.498 248.741C139.094 248.334 139.745 247.832 140.45 247.236C141.155 246.612 141.846 245.961 142.524 245.283C143.202 244.606 143.785 243.982 144.273 243.412C145.168 242.382 145.615 241.541 145.615 240.891C145.615 240.348 145.29 240.077 144.639 240.077C143.989 240.077 143.094 240.389 141.955 241.013C141.304 241.365 140.613 241.867 139.88 242.518C139.148 243.168 138.457 243.873 137.806 244.633C137.182 245.392 136.681 246.097 136.301 246.748C135.867 247.534 135.65 248.171 135.65 248.659C135.65 249.256 135.935 249.554 136.504 249.554ZM160.764 252.157C160.412 252.022 160.059 251.778 159.707 251.425C159.381 251.073 159.218 250.463 159.218 249.595C159.218 248.863 159.34 248.103 159.584 247.317C159.829 246.504 160.14 245.704 160.52 244.917C159.815 245.812 159.042 246.693 158.202 247.561C157.388 248.429 156.561 249.147 155.72 249.717C154.907 250.259 154.148 250.53 153.443 250.53C152.846 250.53 152.344 250.368 151.938 250.042C151.558 249.717 151.368 249.215 151.368 248.537C151.368 248.049 151.463 247.52 151.653 246.951C151.843 246.382 152.182 245.744 152.67 245.039C153.158 244.334 153.687 243.643 154.256 242.965C154.853 242.26 155.368 241.663 155.802 241.175C156.1 240.823 156.249 240.538 156.249 240.321C156.249 240.05 156.1 239.914 155.802 239.914C155.476 239.914 155.015 240.131 154.419 240.565C153.795 241.026 153.131 241.596 152.426 242.274C151.721 242.924 151.056 243.562 150.433 244.185C149.809 244.782 149.28 245.256 148.847 245.609C148.765 245.69 148.684 245.731 148.602 245.731C148.467 245.731 148.399 245.649 148.399 245.487C148.399 245.351 148.521 245.175 148.765 244.958C149.958 243.928 150.948 242.992 151.734 242.152C152.521 241.284 153.294 240.552 154.053 239.955C154.46 239.63 154.88 239.399 155.314 239.264C155.748 239.101 156.154 239.02 156.534 239.02C157.185 239.02 157.727 239.209 158.161 239.589C158.595 239.969 158.812 240.497 158.812 241.175C158.812 241.691 158.676 242.233 158.405 242.802C158.107 243.48 157.7 244.158 157.185 244.836C156.697 245.487 156.222 246.124 155.761 246.748C155.409 247.263 155.151 247.683 154.988 248.009C154.826 248.334 154.744 248.578 154.744 248.741C154.744 248.958 154.853 249.066 155.07 249.066C155.287 249.066 155.598 248.944 156.005 248.7C156.412 248.456 156.832 248.144 157.266 247.765C157.564 247.493 157.822 247.249 158.039 247.032C158.283 246.788 158.459 246.612 158.568 246.504C159.191 245.853 159.815 245.161 160.439 244.429C161.062 243.67 161.605 242.979 162.066 242.355C162.418 241.894 162.689 241.541 162.879 241.297C163.096 241.053 163.327 240.796 163.571 240.525C164.032 240.009 164.52 239.738 165.035 239.711C165.333 239.711 165.672 239.779 166.052 239.914C166.458 240.023 166.852 240.253 167.231 240.606C166.96 240.986 166.553 241.514 166.011 242.192C165.496 242.843 164.926 243.575 164.303 244.389C163.706 245.175 163.123 245.988 162.554 246.829C162.011 247.67 161.564 248.456 161.211 249.188C160.859 249.92 160.683 250.557 160.683 251.1C160.683 251.479 160.791 251.778 161.008 251.995C161.117 252.103 161.117 252.157 161.008 252.157C160.9 252.184 160.818 252.184 160.764 252.157ZM170.403 250.978C169.21 250.978 168.207 250.693 167.393 250.124C166.607 249.527 166.214 248.673 166.214 247.561C166.214 246.368 166.498 245.256 167.068 244.226C167.637 243.195 168.397 242.301 169.346 241.541C170.295 240.755 171.325 240.145 172.437 239.711C173.576 239.277 174.701 239.06 175.813 239.06C176.925 239.06 177.752 239.264 178.294 239.67C178.836 240.05 179.107 240.525 179.107 241.094C179.107 241.636 178.85 242.219 178.335 242.843C177.847 243.44 177.128 243.968 176.179 244.429C175.582 244.7 174.891 244.944 174.104 245.161C173.345 245.351 172.681 245.446 172.111 245.446C171.678 245.446 171.461 245.378 171.461 245.243C171.461 245.134 171.65 245.08 172.03 245.08C172.383 245.08 172.925 244.985 173.657 244.795C174.416 244.578 175.148 244.294 175.853 243.941C176.64 243.507 177.196 243.073 177.521 242.64C177.847 242.206 178.009 241.813 178.009 241.46C178.009 241.135 177.874 240.863 177.602 240.647C177.358 240.43 177.006 240.321 176.545 240.321C176.111 240.321 175.623 240.443 175.081 240.687C174.294 241.04 173.481 241.623 172.64 242.436C171.827 243.223 171.149 244.09 170.607 245.039C170.064 245.988 169.793 246.897 169.793 247.765C169.793 248.361 169.956 248.863 170.281 249.269C170.634 249.676 171.149 249.88 171.827 249.88C172.532 249.88 173.345 249.663 174.267 249.229C175.189 248.768 176.125 248.212 177.074 247.561C178.023 246.883 178.904 246.205 179.718 245.527C180.531 244.85 181.182 244.28 181.67 243.819C181.833 243.656 181.955 243.575 182.036 243.575C182.117 243.575 182.158 243.643 182.158 243.778C182.158 243.968 182.077 244.131 181.914 244.267C180.884 245.216 179.758 246.205 178.538 247.236C177.345 248.266 176.057 249.147 174.674 249.88C173.318 250.585 171.895 250.951 170.403 250.978Z" fill="#F0C0D8"/>
<path d="M74.2711 177C71.9713 177.676 69.5362 178.285 66.9658 178.826C64.6659 179.232 62.0279 179.57 59.0516 179.841C56.2107 180.247 53.0991 180.45 49.717 180.45C44.7115 180.45 39.4354 179.773 33.8887 178.42C28.4774 177.203 23.4718 174.903 18.8722 171.521C14.4078 168.004 10.6875 163.269 7.71121 157.316C4.87024 151.364 3.44975 143.652 3.44975 134.182C3.44975 120.383 7.64357 106.179 16.0312 91.5679C24.4188 76.8219 36.1209 62.3465 51.1375 48.1416C50.3258 45.8418 49.5141 43.6772 48.7024 41.648C47.8907 39.4834 47.0113 37.2512 46.0643 34.9514H91.114C94.7667 47.2623 98.4194 60.926 102.072 75.9426C105.184 88.7946 108.498 103.811 112.015 120.992C115.533 138.173 118.712 156.843 121.553 177H85.4321C83.6734 166.448 81.5088 155.016 78.9384 142.705C76.6386 132.153 73.6623 120.045 70.0097 106.382C66.357 92.7178 61.8926 78.31 56.6165 63.1582C46.4702 74.9279 39.0295 85.6154 34.2946 95.2206C29.5596 104.691 27.1922 113.281 27.1922 120.992C27.1922 124.916 27.7333 128.568 28.8156 131.95C30.0331 135.332 31.7242 138.309 33.8887 140.879C36.0533 143.314 38.759 145.276 42.0058 146.764C45.2526 148.117 48.9729 148.793 53.1668 148.793C55.4666 148.793 58.4429 148.523 62.0955 147.982C65.8835 147.305 69.942 146.223 74.2711 144.735V177Z" fill="#1C3AA4"/>
<path d="M92.9839 145.647C93.7957 144.294 95.8249 141.453 97.8542 138.883C100.019 136.042 101.913 133.742 104.348 130.901C105.836 129.277 105.565 128.736 101.101 128.736C98.3953 128.736 96.5013 129.413 94.0662 131.713C90.9547 134.689 87.8431 138.341 85.8139 141.182C83.514 144.294 81.2142 147.947 79.9966 150.246C79.1849 152.14 79.8614 152.682 83.3788 152.411C86.2197 152.276 87.5726 152.005 89.0607 150.923C94.7426 146.323 98.26 143.347 104.483 138.747C108.271 135.906 111.924 133.606 114.494 132.254C116.118 131.442 117.606 131.036 118.417 131.307C119.229 131.577 119.094 132.389 118.553 133.065C117.065 134.959 115.035 137.394 113.006 139.694C110.3 143.076 108.406 145.512 108.136 148.082C107.73 150.517 108.812 152.952 113.953 152.952C118.688 152.817 123.964 149.435 126.805 147.27C129.646 145.241 133.975 141.318 135.463 139.965C136.14 139.288 136.41 138.747 136.14 138.477C135.734 138.206 135.328 138.341 134.516 139.153C133.028 140.371 129.781 143.347 127.752 144.835C125.993 146.323 123.829 147.676 121.935 148.758C120.717 149.299 119.229 149.841 118.553 149.299C117.876 148.894 118.012 147.811 118.959 146.323C119.77 144.97 121.123 143.212 123.152 140.641C125.317 137.936 128.023 134.824 128.158 132.389C128.428 129.819 126.534 128.33 122.882 128.33C117.065 128.33 110.571 132.524 105.971 135.906C100.83 139.559 95.9602 143.482 93.2545 145.917L92.9839 145.647Z" fill="#7DFE9D"/>
<path d="M134.224 140.03C136.935 136.64 144.799 131.352 149.138 137.318C154.561 144.775 154.561 153.588 163.374 148.843" stroke="#7DFE9D" stroke-width="1.01685"/>
<path d="M98.2926 130.126C97.8406 128.318 98.4282 124.838 104.394 125.38C111.851 126.058 106.43 134.194 100.329 132.16C94.2276 130.126 91.516 117.923 79.9917 125.38C70.7722 131.346 64.8519 127.414 63.0442 124.703C58.9767 121.539 49.215 118.194 42.7071 130.126C36.1992 142.057 25.9855 133.741 21.6922 128.092" stroke="#7DFE9D" stroke-width="1.69475"/>
<path fill-rule="evenodd" clip-rule="evenodd" d="M201.28 125.794C201.28 125.794 196.226 122.279 194.276 116.728L220.399 95.9663L223.171 99.4744L201.28 125.794Z" fill="#7DFE9D"/>
<path fill-rule="evenodd" clip-rule="evenodd" d="M208.871 108.575L179.73 132.604L179.11 131.603L177.56 132.938C177.56 132.938 175.133 130.829 175.08 130.936L176.32 133.605L173.84 132.604L175.08 135.274L172.6 133.605L173.84 136.275L171.36 134.94L172.6 137.61L170.12 136.275L171.36 138.945L168.88 137.61L170.12 139.946L167.64 138.611L168.88 141.281L166.4 139.946L167.64 142.616L165.16 141.615L166.4 143.951L164.23 142.616L165.16 145.286L162.68 144.285L163.92 146.621L161.44 144.952L162.99 147.956L162.06 148.957L162.99 149.959L163.92 149.291L167.33 151.961L166.71 149.959C167.031 150.163 167.341 150.386 167.64 150.626L167.02 147.622L169.19 149.625L168.26 146.621L171.05 148.957L169.81 145.62L171.98 147.622L171.36 144.619L173.84 146.955V145.286L175.08 145.954L174.15 142.616L176.63 144.952L175.7 141.949L178.18 144.285L177.25 141.281L179.11 142.95L178.8 140.28L180.97 142.95L180.04 138.945L182.21 140.614L181.28 137.944L182.83 136.609L182.52 135.608L211.351 111.579L208.871 108.575Z" fill="#7DFE9D"/>
</svg>
