<svg width="125" height="138" viewBox="0 0 125 138" fill="none" xmlns="http://www.w3.org/2000/svg">
<path d="M31.0441 121.22C30.8573 121.328 30.6573 121.432 30.4441 121.533C30.2517 121.617 30.0283 121.702 29.7739 121.789C29.5341 121.884 29.2665 121.967 28.971 122.038C28.5335 122.144 28.0583 122.196 27.5451 122.194C27.0466 122.202 26.5607 122.106 26.0876 121.907C25.6235 121.694 25.1987 121.358 24.8133 120.901C24.4398 120.44 24.1533 119.797 23.954 118.969C23.6636 117.763 23.7311 116.434 24.1566 114.98C24.5792 113.515 25.2971 112.004 26.3104 110.446C26.191 110.263 26.0746 110.091 25.9609 109.93C25.8444 109.758 25.7206 109.582 25.5894 109.401L29.5262 108.452C30.1045 109.451 30.7113 110.568 31.3465 111.804C31.8889 112.861 32.4946 114.104 33.1636 115.531C33.8326 116.959 34.5033 118.523 35.1759 120.225L32.0194 120.985C31.6436 120.1 31.2138 119.147 30.7301 118.125C30.307 117.251 29.7921 116.256 29.1853 115.139C28.5786 114.021 27.8852 112.856 27.1052 111.643C26.4663 112.885 26.041 113.976 25.8294 114.915C25.615 115.842 25.5889 116.643 25.7512 117.317C25.8338 117.659 25.9579 117.967 26.1237 118.24C26.3013 118.51 26.5117 118.734 26.7549 118.913C26.9953 119.081 27.2731 119.195 27.5881 119.257C27.9003 119.307 28.2397 119.288 28.6061 119.199C28.8071 119.151 29.0615 119.065 29.3693 118.94C29.6861 118.802 30.018 118.622 30.365 118.4L31.0441 121.22ZM37.8589 110.31C37.9434 110.765 38.0481 111.278 38.173 111.848C38.2689 112.35 38.3936 112.946 38.5469 113.634C38.7092 114.308 38.8914 115.065 39.0936 115.904C39.2189 116.424 39.3731 116.831 39.5564 117.125C39.7487 117.404 39.9548 117.61 40.1749 117.745C40.3949 117.88 40.6184 117.951 40.8455 117.959C41.0843 117.964 41.3101 117.941 41.5229 117.889C41.7949 117.824 42.036 117.735 42.2464 117.621C42.4657 117.494 42.6184 117.4 42.7045 117.342C42.6712 117.1 42.6234 116.824 42.5612 116.514C42.499 116.203 42.4209 115.853 42.3269 115.463C42.1419 114.695 41.8782 113.808 41.5359 112.802C41.2054 111.793 40.7777 110.771 40.2528 109.734L44.225 108.777C44.2881 108.987 44.3597 109.232 44.4399 109.513C44.5086 109.747 44.5917 110.04 44.6889 110.391C44.7833 110.731 44.8832 111.12 44.9885 111.558C45.1764 112.338 45.3692 113.242 45.5668 114.27C45.7615 115.286 45.923 116.398 46.0512 117.606C45.4951 117.79 45.0263 117.946 44.6447 118.076C44.2631 118.205 43.9097 118.321 43.5844 118.425C43.2737 118.537 42.9602 118.638 42.6439 118.726C42.3275 118.815 41.9565 118.911 41.5309 119.013C40.5615 119.247 39.7275 119.341 39.0289 119.297C38.345 119.261 37.7681 119.125 37.2982 118.888C36.8284 118.651 36.458 118.334 36.1871 117.936C35.9134 117.527 35.7154 117.068 35.5929 116.56C35.3879 115.709 35.2184 114.849 35.0843 113.981C34.9502 113.112 34.817 112.144 34.6847 111.075L37.8589 110.31ZM45.9869 108.484C46.8966 108.002 47.7362 107.594 48.506 107.258C49.2875 106.92 49.9975 106.674 50.6359 106.52C51.8181 106.235 52.7747 106.286 53.5058 106.673C54.2368 107.06 54.7504 107.868 55.0465 109.098C55.2686 110.02 55.4669 110.973 55.6412 111.956C55.8128 112.928 55.9775 114.002 56.1355 115.177L52.9967 115.933C52.9943 115.871 52.9831 115.798 52.9632 115.716C52.9461 115.645 52.9262 115.562 52.9034 115.467C52.8806 115.373 52.8595 115.259 52.84 115.126C52.5703 115.616 52.2249 116 51.8037 116.276C51.3825 116.553 50.965 116.741 50.5512 116.841C49.7828 117.026 49.1182 116.967 48.5575 116.664C48.0058 116.347 47.6445 115.833 47.4736 115.124C47.3882 114.769 47.3827 114.383 47.4571 113.965C47.5286 113.535 47.7139 113.084 48.0129 112.611C48.3119 112.139 48.7424 111.642 49.3044 111.118C49.8781 110.593 50.6172 110.052 51.5215 109.496C51.3518 108.999 51.1364 108.676 50.8752 108.526C50.6229 108.362 50.3549 108.314 50.0712 108.382C49.7402 108.462 49.4083 108.642 49.0756 108.922C48.7428 109.202 48.438 109.495 48.1611 109.799C47.8364 110.165 47.5248 110.559 47.2263 110.981L45.9869 108.484ZM52.3971 113.132C52.3178 112.75 52.2283 112.353 52.1287 111.939C52.038 111.511 51.9357 111.06 51.8218 110.587C51.5609 110.75 51.2761 110.944 50.9674 111.168C50.6587 111.393 50.3808 111.641 50.1337 111.913C49.8955 112.171 49.7058 112.448 49.5646 112.744C49.4206 113.029 49.3842 113.319 49.4554 113.615C49.5294 113.922 49.6648 114.121 49.8617 114.211C50.0556 114.29 50.2709 114.3 50.5073 114.243C50.8147 114.169 51.1359 114.023 51.4711 113.805C51.8063 113.587 52.1149 113.362 52.3971 113.132ZM58.4212 114.626C58.3108 113.752 58.1388 112.831 57.9054 111.861C57.706 111.034 57.4397 110.11 57.1064 109.089C56.7731 108.069 56.3366 107.036 55.7971 105.99L59.7516 105.037C59.9957 105.792 60.2348 106.628 60.4687 107.548C60.6713 108.337 60.8712 109.271 61.0683 110.349C61.2773 111.424 61.4471 112.597 61.5777 113.866L58.4212 114.626ZM56.649 100.569L59.2583 102.211L57.6655 104.789L55.0379 103.227L56.649 100.569ZM63.9361 113.298C63.8256 112.424 63.6537 111.502 63.4202 110.533C63.2209 109.705 62.9546 108.781 62.6212 107.761C62.2879 106.741 61.8574 105.706 61.3297 104.657C62.2261 104.329 63.0014 104.042 63.6553 103.797C64.3092 103.552 64.8596 103.344 65.3064 103.174C65.765 103.001 66.1393 102.867 66.4291 102.773C66.7162 102.666 66.9424 102.593 67.1079 102.553C67.7789 102.379 68.4046 102.328 68.985 102.401C69.5626 102.462 70.0745 102.614 70.5207 102.856C70.9669 103.099 71.3387 103.422 71.636 103.826C71.9305 104.218 72.1376 104.662 72.2571 105.159C72.4707 106.045 72.6573 106.976 72.817 107.951C72.9886 108.923 73.1493 109.953 73.2991 111.043L70.1426 111.803C70.0377 111.316 69.9245 110.767 69.8029 110.159C69.7013 109.633 69.5724 109.02 69.4162 108.32C69.2572 107.607 69.0751 106.826 68.8701 105.974C68.6964 105.253 68.4546 104.742 68.1445 104.442C67.8463 104.139 67.5293 103.965 67.1935 103.921C66.8548 103.865 66.5242 103.894 66.2017 104.009C65.891 104.122 65.6379 104.239 65.4422 104.361C65.5427 104.675 65.6643 105.102 65.8071 105.643C65.9589 106.169 66.1143 106.788 66.2733 107.5C66.4413 108.198 66.5968 108.974 66.7399 109.827C66.8829 110.681 67.0064 111.583 67.1103 112.533L63.9361 113.298ZM79.2533 109.609C78.5558 109.777 77.9504 109.86 77.4372 109.859C76.933 109.842 76.5004 109.734 76.1394 109.533C75.7783 109.333 75.4816 109.035 75.249 108.641C75.0136 108.235 74.8205 107.718 74.6695 107.092C74.5642 106.654 74.4747 106.257 74.4011 105.899C74.3275 105.542 74.2568 105.196 74.1889 104.862C74.1181 104.517 74.0474 104.171 73.9766 103.825C73.903 103.468 73.8164 103.082 73.7167 102.668L73.1847 102.796L72.9584 101.857L73.4726 101.733C73.3123 101.171 73.1522 100.584 72.9923 99.9723C72.8443 99.3575 72.6697 98.7366 72.4687 98.1096L76.033 97.2512C76.1583 97.7713 76.295 98.3388 76.443 98.9535C76.5911 99.5683 76.7359 100.221 76.8774 100.913L77.9768 100.648L78.2032 101.588L77.0683 101.861C77.1219 102.136 77.1797 102.453 77.2414 102.814C77.315 103.171 77.3811 103.549 77.4396 103.948C77.5099 104.344 77.5743 104.741 77.6328 105.14C77.7031 105.536 77.7618 105.909 77.8089 106.261C77.867 106.709 77.8626 107.054 77.7956 107.296C77.7258 107.525 77.6372 107.703 77.53 107.829C77.4345 107.952 77.3481 108.06 77.2706 108.154C77.1902 108.236 77.1686 108.354 77.2056 108.507C77.2398 108.649 77.329 108.734 77.4733 108.762C77.6175 108.789 77.7798 108.788 77.9599 108.757C78.1373 108.714 78.3148 108.647 78.4926 108.554C78.6703 108.461 78.8143 108.357 78.9244 108.243L79.2533 109.609Z" fill="#7DFE9D"/>
<path d="M48.2255 127.9C47.7172 128.023 47.2558 128.002 46.8413 127.84C46.4359 127.662 46.1747 127.331 46.058 126.846C45.9327 126.326 45.9401 125.812 46.0802 125.302C46.2321 124.791 46.475 124.319 46.8091 123.889C47.1403 123.446 47.5254 123.072 47.9646 122.766C48.4155 122.457 48.8834 122.245 49.3681 122.128C49.8528 122.011 50.2288 122.014 50.4961 122.138C50.7753 122.258 50.9448 122.442 51.0046 122.691C51.0444 122.856 51.037 123.033 50.9823 123.221C50.9247 123.398 50.8132 123.506 50.6477 123.546C50.5413 123.571 50.4781 123.543 50.4582 123.46C50.4439 123.401 50.4489 123.343 50.4729 123.288C50.555 123.005 50.5733 122.769 50.5277 122.58C50.4708 122.344 50.3182 122.255 50.0699 122.315C49.8689 122.364 49.6273 122.503 49.3452 122.734C49.1136 122.915 48.8799 123.165 48.6441 123.484C48.4173 123.789 48.2182 124.131 48.0469 124.51C47.8726 124.877 47.7426 125.246 47.6568 125.617C47.58 125.973 47.5758 126.293 47.6441 126.577C47.7096 126.849 47.8406 127.055 48.037 127.195C48.2334 127.335 48.4852 127.369 48.7926 127.295C48.9936 127.246 49.2186 127.142 49.4678 126.982C49.7287 126.819 50.005 126.59 50.2966 126.294C50.5376 126.049 50.7819 125.765 51.0295 125.443C51.2889 125.117 51.535 124.789 51.7679 124.458C52.0008 124.127 52.2009 123.841 52.3682 123.6C52.422 123.512 52.4726 123.463 52.5199 123.451C52.5671 123.44 52.5979 123.464 52.6121 123.523C52.6321 123.606 52.6137 123.685 52.557 123.761C52.318 124.119 52.0551 124.508 51.7683 124.927C51.4787 125.334 51.1671 125.728 50.8335 126.109C50.5117 126.487 50.183 126.81 49.8474 127.078C49.2982 127.498 48.7575 127.772 48.2255 127.9ZM53.1145 126.554C52.748 126.642 52.4373 126.598 52.1822 126.422C51.9243 126.234 51.7512 125.957 51.6629 125.59C51.5803 125.247 51.5779 124.848 51.6556 124.391C51.7451 123.932 51.9395 123.441 52.239 122.919C52.5445 122.37 52.972 121.885 53.5212 121.465C54.0676 121.033 54.6186 120.751 55.1743 120.617C55.6235 120.509 56.0319 120.517 56.3995 120.641C56.7643 120.753 57.0355 120.944 57.213 121.214C57.3431 121.183 57.5112 121.18 57.7175 121.205C57.9355 121.228 58.0673 121.333 58.1129 121.523C58.1442 121.653 58.1148 121.816 58.0246 122.013C57.9703 122.151 57.8652 122.364 57.7094 122.652C57.5654 122.936 57.4374 123.236 57.3256 123.551C57.235 123.798 57.1711 124.026 57.1339 124.235C57.0938 124.432 57.0895 124.596 57.1208 124.726C57.1635 124.903 57.2735 124.971 57.4509 124.928C57.6518 124.879 57.9262 124.694 58.2741 124.373C58.6517 124.019 59.0031 123.635 59.3281 123.219C59.6532 122.803 59.9053 122.473 60.0843 122.23C60.132 122.168 60.1677 122.135 60.1914 122.129C60.2387 122.118 60.2694 122.141 60.2837 122.2C60.3007 122.271 60.2868 122.344 60.242 122.417C60.1584 122.537 59.9942 122.764 59.7494 123.098C59.5047 123.433 59.2155 123.79 58.8819 124.17C58.5601 124.548 58.2315 124.871 57.8959 125.14C57.7266 125.268 57.565 125.376 57.4108 125.463C57.2657 125.535 57.1281 125.587 56.9981 125.618C56.6789 125.695 56.4152 125.665 56.2069 125.528C55.9959 125.378 55.8548 125.156 55.7836 124.86C55.7551 124.742 55.7429 124.614 55.7471 124.475C55.7512 124.337 55.7613 124.197 55.7772 124.055L55.8288 123.724C55.6125 124.176 55.382 124.569 55.1373 124.903C54.8897 125.226 54.635 125.518 54.3732 125.782C54.1501 125.998 53.9289 126.17 53.7096 126.298C53.502 126.423 53.3037 126.508 53.1145 126.554ZM53.5532 125.96C53.766 125.909 54.0435 125.711 54.3856 125.366C54.7249 125.009 55.0965 124.5 55.5004 123.84C55.5542 123.752 55.6544 123.597 55.8008 123.374C55.9562 123.136 56.1192 122.878 56.2897 122.6C56.4574 122.309 56.591 122.033 56.6906 121.771C56.7992 121.495 56.8349 121.28 56.7979 121.126C56.7438 120.902 56.5217 120.836 56.1316 120.93C55.7887 121.013 55.4077 121.249 54.9885 121.637C54.5783 122.011 54.2171 122.511 53.905 123.136C53.5838 123.777 53.3639 124.317 53.245 124.759C53.1352 125.186 53.1045 125.499 53.1529 125.7C53.207 125.925 53.3404 126.012 53.5532 125.96ZM61.4569 124.845C61.0785 124.936 60.7619 124.893 60.5068 124.717C60.2517 124.541 60.0758 124.252 59.979 123.85C59.8878 123.472 59.8816 123.004 59.9601 122.447L59.9742 122.35L59.7276 122.728C59.6917 122.787 59.6442 122.824 59.5851 122.838C59.526 122.852 59.4907 122.835 59.4794 122.788C59.4651 122.729 59.4894 122.648 59.5522 122.546C59.7941 122.2 60.0391 121.84 60.2871 121.468C60.5441 121.081 60.7521 120.724 60.9112 120.398C60.837 120.454 60.7526 120.493 60.6581 120.516C60.5635 120.538 60.4869 120.532 60.4282 120.496C60.3312 120.457 60.2642 120.36 60.2272 120.207C60.1959 120.077 60.2222 119.926 60.3063 119.756C60.4021 119.583 60.6323 119.396 60.9968 119.196C61.0739 119.152 61.1524 119.114 61.2323 119.083C61.324 119.048 61.4098 119.015 61.4897 118.983C61.7399 118.36 61.9528 117.79 62.1283 117.272C62.301 116.743 62.4516 116.381 62.5801 116.188C62.6311 116.088 62.7381 115.987 62.9012 115.885C63.0761 115.781 63.2598 115.686 63.4522 115.602C63.6565 115.516 63.8177 115.458 63.9359 115.43C64.3261 115.336 64.5297 115.324 64.5467 115.395C64.5581 115.442 64.4965 115.576 64.3619 115.796C64.1347 116.151 63.8714 116.59 63.5719 117.112C63.2814 117.62 62.9877 118.166 62.6907 118.75C63.0449 118.715 63.3795 118.728 63.6946 118.79C64.0215 118.849 64.2741 118.963 64.4526 119.133C64.5141 119.18 64.5548 119.246 64.5747 119.328C64.5975 119.423 64.5794 119.477 64.5202 119.492C64.473 119.503 64.4126 119.486 64.3393 119.441C64.0312 119.253 63.5876 119.228 63.0083 119.368C62.8901 119.396 62.7674 119.432 62.6402 119.475C62.5248 119.516 62.4049 119.563 62.2806 119.618C62.0039 120.235 61.7627 120.844 61.557 121.444C61.3513 122.043 61.2316 122.585 61.1979 123.068C61.1782 123.298 61.1897 123.502 61.2324 123.679C61.2751 123.857 61.3521 123.994 61.4633 124.093C61.5717 124.179 61.7087 124.202 61.8742 124.163C61.9806 124.137 62.1035 124.076 62.2429 123.98C62.4476 123.843 62.675 123.645 62.925 123.384C63.1721 123.112 63.4136 122.816 63.6493 122.497C63.8969 122.175 64.1223 121.864 64.3254 121.565C64.5404 121.263 64.7166 121.008 64.854 120.8C64.9915 120.591 65.0692 120.473 65.0872 120.443C65.1141 120.399 65.1394 120.374 65.163 120.369C65.2103 120.357 65.2425 120.387 65.2596 120.458C65.2795 120.541 65.2625 120.626 65.2087 120.714C65.1189 120.861 64.9784 121.082 64.7871 121.378C64.6076 121.672 64.3939 122.005 64.1458 122.377C63.9068 122.735 63.6413 123.087 63.3493 123.432C63.0572 123.778 62.7479 124.077 62.4213 124.331C62.1094 124.594 61.7879 124.765 61.4569 124.845ZM65.7743 123.505C65.4078 123.593 65.097 123.549 64.8419 123.373C64.584 123.185 64.4109 122.907 64.3226 122.541C64.2401 122.198 64.2376 121.799 64.3153 121.342C64.4048 120.883 64.5993 120.392 64.8987 119.869C65.2043 119.321 65.6317 118.836 66.1809 118.416C66.7273 117.984 67.2784 117.702 67.834 117.568C68.2832 117.46 68.6917 117.467 69.0593 117.592C69.424 117.704 69.6952 117.895 69.8728 118.165C70.0028 118.134 70.1709 118.131 70.3772 118.156C70.5952 118.178 70.727 118.284 70.7726 118.473C70.8039 118.604 70.7745 118.767 70.6843 118.964C70.63 119.102 70.525 119.315 70.3691 119.603C70.2251 119.887 70.0972 120.187 69.9853 120.502C69.8947 120.749 69.8308 120.977 69.7936 121.186C69.7536 121.383 69.7492 121.547 69.7805 121.677C69.8232 121.854 69.9333 121.921 70.1106 121.879C70.3116 121.83 70.586 121.645 70.9338 121.324C71.3114 120.97 71.6628 120.586 71.9879 120.17C72.3129 119.754 72.565 119.424 72.7441 119.181C72.7918 119.119 72.8275 119.085 72.8511 119.08C72.8984 119.068 72.9291 119.092 72.9434 119.151C72.9605 119.222 72.9466 119.294 72.9017 119.368C72.8181 119.488 72.6539 119.715 72.4092 120.049C72.1644 120.383 71.8753 120.741 71.5417 121.121C71.2199 121.499 70.8912 121.822 70.5556 122.09C70.3864 122.219 70.2247 122.326 70.0706 122.414C69.9254 122.486 69.7878 122.538 69.6578 122.569C69.3386 122.646 69.0749 122.616 68.8667 122.478C68.6556 122.329 68.5145 122.107 68.4433 121.811C68.4148 121.693 68.4027 121.565 68.4068 121.426C68.411 121.287 68.421 121.147 68.437 121.006L68.4885 120.675C68.2722 121.127 68.0417 121.52 67.797 121.854C67.5494 122.177 67.2947 122.469 67.0329 122.733C66.8099 122.949 66.5886 123.121 66.3693 123.249C66.1618 123.374 65.9634 123.459 65.7743 123.505ZM66.2129 122.911C66.4257 122.86 66.7032 122.662 67.0454 122.317C67.3847 121.96 67.7563 121.451 68.1601 120.791C68.214 120.703 68.3141 120.548 68.4605 120.325C68.616 120.087 68.7789 119.829 68.9495 119.55C69.1171 119.26 69.2508 118.984 69.3503 118.722C69.4589 118.446 69.4947 118.231 69.4577 118.077C69.4036 117.853 69.1814 117.787 68.7913 117.881C68.4485 117.964 68.0675 118.199 67.6482 118.588C67.238 118.962 66.8768 119.462 66.5647 120.087C66.2436 120.728 66.0236 121.268 65.9048 121.71C65.7949 122.136 65.7642 122.45 65.8126 122.651C65.8667 122.876 66.0001 122.963 66.2129 122.911ZM74.5264 121.472C74.0535 121.586 73.6954 121.553 73.4522 121.374C73.2061 121.183 73.046 120.934 72.972 120.627C72.9008 120.331 72.8786 120.005 72.9052 119.648C72.9437 119.289 72.9983 118.944 73.069 118.615C72.9552 118.817 72.8444 119.006 72.7367 119.182C72.6262 119.347 72.5336 119.481 72.4589 119.587C72.4202 119.634 72.3772 119.663 72.3299 119.674C72.2708 119.689 72.2341 119.666 72.2199 119.607C72.2056 119.548 72.2283 119.486 72.2878 119.422C72.4848 119.149 72.7047 118.79 72.9475 118.344C73.1902 117.897 73.4079 117.451 73.6005 117.004C73.7629 116.64 73.9541 116.187 74.1741 115.647C74.394 115.106 74.6142 114.54 74.8346 113.949C75.0522 113.346 75.2338 112.802 75.3796 112.317C75.398 112.237 75.4121 112.14 75.4219 112.025C75.4436 111.908 75.4445 111.807 75.4245 111.725C75.396 111.606 75.3345 111.559 75.2399 111.581C75.2163 111.587 75.1511 111.628 75.0442 111.704C74.9492 111.776 74.8542 111.849 74.7592 111.922C74.6642 111.995 74.6049 112.035 74.5812 112.04C74.4867 112.063 74.4797 112.008 74.5605 111.876C74.7155 111.689 74.9192 111.496 75.1716 111.298C75.433 111.085 75.706 110.894 75.9906 110.725C76.2752 110.557 76.5239 110.447 76.7367 110.395C77.2332 110.276 77.5199 110.376 77.5968 110.695C77.6366 110.86 77.6125 111.097 77.5243 111.406C77.4455 111.651 77.3175 111.95 77.1405 112.306C76.9605 112.649 76.7567 113.023 76.5291 113.428C76.3104 113.819 76.0977 114.208 75.8908 114.595C75.6811 114.971 75.5102 115.3 75.378 115.582C75.3449 115.652 75.2637 115.835 75.1344 116.128C75.0168 116.419 74.8825 116.771 74.7315 117.182C74.5895 117.579 74.4472 118.001 74.3047 118.448C74.1712 118.881 74.0703 119.293 74.0021 119.684C73.9428 120.061 73.9416 120.368 73.9986 120.605C74.0754 120.924 74.2676 121.046 74.5749 120.972C74.7759 120.924 75.0159 120.804 75.2948 120.611C75.5647 120.434 75.8336 120.2 76.1016 119.91C76.3785 119.606 76.6407 119.293 76.8883 118.97C77.1477 118.645 77.3686 118.342 77.5509 118.06C77.7451 117.776 77.887 117.56 77.9768 117.414C78.0306 117.326 78.0812 117.276 78.1285 117.265C78.1758 117.253 78.2065 117.277 78.2208 117.336C78.235 117.395 78.2197 117.462 78.1748 117.535C78.0341 117.781 77.8366 118.104 77.5825 118.503C77.3402 118.899 77.0579 119.311 76.7357 119.739C76.4224 120.152 76.0801 120.522 75.7086 120.849C75.3342 121.165 74.9402 121.372 74.5264 121.472ZM79.1354 120.437C78.6743 120.548 78.2985 120.519 78.008 120.352C77.7264 120.169 77.5415 119.895 77.4532 119.529C77.3991 119.304 77.376 119.078 77.3838 118.851C77.3917 118.624 77.4112 118.419 77.4422 118.237C77.3794 118.339 77.3152 118.436 77.2495 118.527C77.1928 118.603 77.1451 118.665 77.1063 118.712C77.0676 118.758 77.0305 118.786 76.995 118.795C76.9477 118.806 76.917 118.782 76.9027 118.723C76.8828 118.64 76.9191 118.532 77.0117 118.397C77.3429 117.954 77.5954 117.574 77.7692 117.257C77.9402 116.929 78.1286 116.62 78.3346 116.333C78.6809 115.85 79.0767 115.442 79.522 115.109C79.9673 114.777 80.4382 114.551 80.9347 114.431C81.4548 114.306 81.8926 114.332 82.248 114.509C82.6033 114.686 82.8393 115.017 82.9561 115.502C83.0216 115.773 83.0143 116.107 82.9342 116.501C82.8659 116.893 82.7059 117.319 82.4542 117.78C82.3494 117.968 82.2268 118.16 82.0865 118.356C81.9433 118.541 81.8152 118.684 81.7023 118.787C82.2673 118.588 82.7627 118.256 83.1885 117.791C83.6114 117.314 83.9826 116.855 84.302 116.416C84.3525 116.366 84.3896 116.338 84.4133 116.333C84.4724 116.318 84.5091 116.341 84.5233 116.4C84.5347 116.447 84.5179 116.507 84.4731 116.581C84.0815 117.188 83.63 117.728 83.1186 118.202C82.619 118.672 82.0132 118.987 81.301 119.146C80.9413 119.47 80.5762 119.746 80.2056 119.973C79.8468 120.197 79.49 120.351 79.1354 120.437ZM79.8138 119.748C79.9793 119.708 80.1495 119.636 80.3244 119.531C80.4993 119.427 80.67 119.304 80.8363 119.164C80.7654 119.181 80.6859 119.163 80.5979 119.109C80.5217 119.052 80.4694 118.965 80.4409 118.847C80.384 118.61 80.4143 118.346 80.5318 118.055C80.6493 117.764 80.8168 117.499 81.0342 117.259C81.2515 117.019 81.4843 116.869 81.7326 116.809C81.8745 116.775 82.0145 116.785 82.1526 116.84C82.2998 116.879 82.3949 116.963 82.438 117.09C82.5849 116.817 82.6625 116.542 82.6708 116.264C82.6909 115.984 82.6739 115.732 82.6198 115.507C82.5458 115.2 82.3898 114.994 82.1518 114.888C81.9228 114.769 81.6427 114.748 81.3117 114.828C80.9925 114.905 80.6649 115.103 80.3289 115.421C80.0047 115.737 79.7139 116.114 79.4565 116.551C79.2109 116.985 79.0256 117.436 78.9006 117.904C78.7875 118.369 78.7765 118.791 78.8676 119.169C78.99 119.678 79.3054 119.87 79.8138 119.748ZM84.0218 124.1C83.3006 124.274 82.6837 124.335 82.1709 124.283C81.6582 124.232 81.2258 124.098 80.8737 123.883C80.6362 123.728 80.3948 123.504 80.1495 123.213C79.9071 122.934 79.7589 122.682 79.7048 122.457C79.6849 122.374 79.6926 122.329 79.7281 122.32C79.8109 122.3 79.8754 122.335 79.9219 122.424C79.9304 122.459 80.0045 122.585 80.1442 122.802C80.2721 123.021 80.4707 123.248 80.74 123.484C81.0093 123.719 81.3647 123.896 81.8061 124.015C82.2474 124.134 82.7814 124.118 83.408 123.967C84.1528 123.787 84.778 123.449 85.2837 122.952C85.7922 122.467 86.2087 121.885 86.5331 121.207C86.8721 120.537 87.157 119.824 87.3876 119.068C87.6183 118.312 87.8341 117.572 88.035 116.849C88.2359 116.125 88.4612 115.476 88.711 114.903C88.5972 115.106 88.4519 115.36 88.2753 115.665C88.1076 115.956 87.9236 116.256 87.7233 116.567C87.523 116.878 87.3289 117.163 87.1408 117.42C86.9528 117.678 86.7933 117.873 86.6624 118.005C86.4394 118.221 86.2181 118.393 85.9988 118.521C85.7913 118.646 85.5929 118.731 85.4038 118.777C85.0373 118.865 84.7265 118.821 84.4714 118.645C84.2135 118.457 84.0404 118.18 83.9521 117.813C83.8696 117.47 83.8671 117.071 83.9448 116.614C84.0343 116.155 84.2288 115.664 84.5282 115.142C84.8338 114.593 85.2612 114.108 85.8104 113.688C86.3569 113.257 86.9079 112.974 87.4635 112.84C87.6645 112.792 87.8652 112.768 88.0658 112.77C88.2635 112.76 88.4506 112.784 88.627 112.841C88.8711 112.92 89.0547 113.007 89.1778 113.102C89.3098 113.183 89.418 113.295 89.5023 113.437C89.5732 113.42 89.694 113.428 89.8648 113.462C90.0327 113.484 90.1931 113.527 90.3459 113.59C90.4959 113.642 90.5823 113.715 90.6051 113.809C90.6165 113.857 90.582 113.921 90.5016 114.003C90.2937 114.178 90.096 114.526 89.9087 115.046C89.7185 115.555 89.5142 116.161 89.2957 116.864C89.0863 117.552 88.8353 118.276 88.5426 119.034C88.2647 119.801 87.9221 120.534 87.515 121.233C87.1078 121.931 86.6159 122.537 86.0393 123.052C85.4745 123.563 84.802 123.912 84.0218 124.1ZM85.7892 118.196C86.0257 118.139 86.2868 117.951 86.5727 117.632C86.7901 117.392 87.0212 117.105 87.2659 116.771C87.5078 116.425 87.7409 116.069 87.9653 115.702C88.1896 115.335 88.3783 115.002 88.5313 114.703C88.8133 114.16 88.92 113.746 88.8517 113.462C88.7948 113.226 88.6244 113.142 88.3407 113.21C88.057 113.279 87.6996 113.509 87.2686 113.9C87.0218 114.122 86.7731 114.413 86.5222 114.774C86.2713 115.135 86.0439 115.515 85.8399 115.914C85.6477 116.31 85.503 116.67 85.4059 116.994C85.2993 117.382 85.2716 117.683 85.3229 117.896C85.3855 118.156 85.541 118.256 85.7892 118.196ZM96.6392 116.784C96.4713 116.762 96.292 116.692 96.1013 116.576C95.9224 116.456 95.7874 116.207 95.6963 115.829C95.6194 115.51 95.5929 115.166 95.6167 114.797C95.6377 114.417 95.6897 114.036 95.7726 113.653C95.5592 114.117 95.3148 114.582 95.0394 115.049C94.7759 115.513 94.4908 115.913 94.1841 116.249C93.8864 116.571 93.5838 116.769 93.2765 116.843C93.0164 116.906 92.7806 116.888 92.5691 116.788C92.3694 116.686 92.234 116.488 92.1628 116.192C92.1115 115.979 92.0974 115.739 92.1203 115.471C92.1433 115.202 92.2242 114.889 92.3629 114.53C92.5017 114.172 92.6596 113.815 92.8367 113.459C93.0228 113.089 93.1847 112.775 93.3226 112.517C93.4157 112.332 93.4508 112.192 93.428 112.098C93.3995 111.979 93.3203 111.936 93.1902 111.967C93.0484 112.001 92.8702 112.144 92.6556 112.396C92.4321 112.663 92.2023 112.981 91.9661 113.35C91.7271 113.708 91.5043 114.056 91.2979 114.393C91.0887 114.719 90.908 114.981 90.7558 115.18C90.7289 115.224 90.6977 115.25 90.6622 115.259C90.6031 115.273 90.565 115.245 90.5479 115.174C90.5337 115.115 90.5684 115.025 90.652 114.905C91.064 114.33 91.3973 113.819 91.6518 113.37C91.9036 112.909 92.1636 112.508 92.432 112.169C92.5751 111.984 92.7342 111.839 92.9091 111.735C93.0812 111.618 93.25 111.54 93.4155 111.5C93.6992 111.432 93.9556 111.458 94.1846 111.578C94.4136 111.698 94.5637 111.905 94.6349 112.201C94.689 112.425 94.6868 112.676 94.6284 112.953C94.5695 113.28 94.4634 113.618 94.3099 113.968C94.1655 114.303 94.0255 114.63 93.89 114.951C93.7904 115.212 93.7223 115.423 93.6855 115.581C93.6487 115.74 93.6389 115.855 93.656 115.926C93.6788 116.021 93.7374 116.057 93.832 116.034C93.9266 116.011 94.0497 115.925 94.2014 115.776C94.3531 115.627 94.5036 115.447 94.6529 115.236C94.7545 115.086 94.8412 114.953 94.913 114.836C94.9937 114.704 95.0521 114.608 95.088 114.55C95.2916 114.2 95.4909 113.833 95.6859 113.449C95.8781 113.052 96.0419 112.694 96.1774 112.373C96.2827 112.135 96.3639 111.953 96.421 111.827C96.4899 111.698 96.5634 111.561 96.6413 111.417C96.7882 111.144 96.9725 110.975 97.1943 110.909C97.3243 110.878 97.4792 110.872 97.659 110.891C97.8477 110.895 98.0433 110.955 98.2458 111.068C98.1675 111.262 98.0457 111.536 97.8804 111.888C97.7241 112.226 97.5527 112.605 97.3662 113.025C97.1887 113.431 97.02 113.847 96.86 114.273C96.7118 114.696 96.5993 115.086 96.5225 115.442C96.4457 115.798 96.4358 116.095 96.4927 116.331C96.5326 116.497 96.6112 116.615 96.7286 116.687C96.7872 116.723 96.7929 116.747 96.7456 116.758C96.7012 116.781 96.6657 116.79 96.6392 116.784ZM100.718 115.257C100.198 115.383 99.7304 115.364 99.3159 115.201C98.9104 115.023 98.6493 114.692 98.5326 114.208C98.4073 113.688 98.4147 113.173 98.5547 112.664C98.6948 112.155 98.9318 111.685 99.2659 111.254C99.5971 110.812 99.9823 110.438 100.421 110.132C100.872 109.823 101.34 109.61 101.825 109.494C102.31 109.377 102.692 109.379 102.971 109.499C103.247 109.608 103.415 109.786 103.475 110.034C103.532 110.271 103.481 110.552 103.322 110.878C103.171 111.189 102.914 111.495 102.548 111.796C102.317 111.977 102.041 112.156 101.721 112.333C101.41 112.495 101.13 112.606 100.882 112.666C100.693 112.712 100.591 112.705 100.577 112.646C100.565 112.599 100.642 112.555 100.808 112.515C100.962 112.478 101.188 112.38 101.487 112.22C101.796 112.046 102.085 111.845 102.355 111.617C102.652 111.345 102.849 111.098 102.946 110.875C103.042 110.651 103.072 110.463 103.034 110.309C103 110.167 102.913 110.063 102.772 109.997C102.643 109.928 102.477 109.918 102.277 109.966C102.087 110.012 101.887 110.116 101.677 110.28C101.371 110.516 101.077 110.856 100.796 111.298C100.524 111.727 100.32 112.176 100.183 112.647C100.046 113.118 100.023 113.542 100.114 113.92C100.177 114.181 100.301 114.382 100.485 114.525C100.682 114.666 100.928 114.7 101.223 114.629C101.531 114.555 101.862 114.375 102.219 114.089C102.572 113.791 102.922 113.451 103.267 113.067C103.61 112.672 103.923 112.284 104.206 111.903C104.49 111.522 104.714 111.205 104.878 110.953C104.932 110.865 104.977 110.817 105.012 110.808C105.048 110.8 105.072 110.825 105.087 110.884C105.107 110.967 105.088 111.046 105.032 111.123C104.682 111.645 104.295 112.194 103.872 112.772C103.46 113.346 102.991 113.866 102.464 114.33C101.947 114.78 101.365 115.089 100.718 115.257Z" fill="#F0C0D8"/>
<path d="M51.1131 93.4114C50.1815 93.9478 49.1837 94.4689 48.1199 94.9747C47.1598 95.3932 46.0452 95.8176 44.7761 96.2481C43.5801 96.7234 42.2448 97.1386 40.7703 97.4937C38.588 98.0193 36.2167 98.2785 33.6564 98.2711C31.1693 98.3085 28.7455 97.8314 26.385 96.8399C24.0693 95.7752 21.9501 94.1015 20.0275 91.8188C18.1638 89.522 16.7348 86.3092 15.7404 82.1805C14.2914 76.1645 14.6282 69.5311 16.7508 62.2804C18.8592 54.9707 22.4411 47.4309 27.4964 39.661C26.901 38.7436 26.3198 37.8851 25.7529 37.0856C25.1717 36.2272 24.5539 35.3463 23.8995 34.4431L43.5403 29.7126C46.4255 34.6963 49.4527 40.2698 52.6221 46.4332C55.3282 51.7097 58.35 57.9085 61.6877 65.0298C65.0253 72.151 68.3718 79.9566 71.727 88.4465L55.9791 92.2394C54.1043 87.8235 51.9602 83.0669 49.5468 77.9696C47.4361 73.6105 44.8671 68.6442 41.8398 63.0707C38.8126 57.4972 35.3533 51.6845 31.462 45.6326C28.2743 51.8294 26.1526 57.2702 25.0968 61.9551C24.0269 66.5809 23.8968 70.5749 24.7065 73.9368C25.1185 75.6472 25.738 77.1829 26.565 78.5438C27.4509 79.8905 28.5007 81.0105 29.7143 81.9038C30.9137 82.7382 32.2993 83.3093 33.8711 83.6172C35.4287 83.866 37.1218 83.7703 38.9502 83.3299C39.9528 83.0884 41.222 82.6579 42.7577 82.0384C44.3381 81.3458 45.9939 80.4477 47.725 79.3444L51.1131 93.4114Z" fill="#1C3AA4"/>
<path d="M55.8935 77.4202C56.1053 76.7452 56.6917 75.2935 57.3065 73.9597C57.9519 72.4939 58.5361 71.2923 59.2995 69.798C59.7778 68.934 59.603 68.7264 57.6566 69.1952C56.477 69.4793 55.7223 69.9731 54.9021 71.2315C53.8581 72.8558 52.8851 74.775 52.2987 76.2267C51.6227 77.8248 51.0036 79.6588 50.7143 80.7893C50.5593 81.7003 50.911 81.8652 52.4161 81.3779C53.6405 81.0206 54.2019 80.7606 54.737 80.1324C56.7313 77.5304 57.9522 75.8635 60.1824 73.2047C61.5355 71.5683 62.8865 70.1821 63.8651 69.3224C64.4876 68.798 65.0938 68.4648 65.4761 68.4975C65.8584 68.5303 65.8847 68.8984 65.7198 69.2501C65.2699 70.2321 64.6408 71.5068 63.9976 72.7226C63.1731 74.4812 62.6031 75.7418 62.7551 76.8908C62.8338 77.9951 63.5614 78.9431 65.8027 78.4033C67.8528 77.8471 69.7979 75.8186 70.8092 74.5766C71.8347 73.3935 73.3102 71.2285 73.8169 70.4824C74.0408 70.1165 74.1019 69.8521 73.9555 69.7626C73.7502 69.6872 73.5875 69.7888 73.3188 70.228C72.7979 70.9151 71.6948 72.5536 70.9664 73.4155C70.3559 74.2489 69.5543 75.066 68.8422 75.7368C68.3682 76.1005 67.7762 76.4927 67.4245 76.3278C67.0869 76.2219 67.0323 75.7359 67.2889 74.9876C67.5007 74.3126 67.9058 73.4038 68.5207 72.07C69.1802 70.6631 70.0331 69.0224 69.8364 67.9466C69.6845 66.7975 68.7025 66.3476 67.11 66.7312C64.5738 67.342 62.1831 69.8523 60.5328 71.8098C58.6751 73.9421 56.9638 76.164 56.0398 77.5098L55.8935 77.4202Z" fill="#7DFE9D"/>
<path d="M73.2228 70.3893C74.0491 68.6268 76.9222 65.4958 79.4402 67.6411C82.5876 70.3226 83.513 74.1649 86.8569 71.1706" stroke="#7DFE9D" stroke-width="0.456003"/>
<path d="M56.5178 69.8455C56.1309 69.1048 56.0217 67.5259 58.6795 67.1359C62.0017 66.6485 60.4926 70.7645 57.6191 70.5184C54.7455 70.2723 52.282 65.237 48.0407 69.6983C44.6476 73.2673 41.6536 72.1748 40.5808 71.1824C38.4753 70.2303 33.8681 69.7972 32.2837 75.6823C30.6993 81.5674 25.3731 79.0145 22.9081 77.0023" stroke="#7DFE9D" stroke-width="0.760006"/>
<path fill-rule="evenodd" clip-rule="evenodd" d="M100.963 57.1421C100.963 57.1421 98.3905 56.1403 96.9573 53.9251L106.166 42.1302L107.743 43.3686L100.963 57.1421Z" fill="#7DFE9D"/>
<path fill-rule="evenodd" clip-rule="evenodd" d="M102.464 48.8372L92.2831 62.3732L91.9077 62.0018L91.3721 62.7466C91.3721 62.7466 90.0923 62.0819 90.0806 62.134L90.9015 63.1678L89.7152 62.9917L90.5361 64.0255L89.2797 63.5584L90.1006 64.5922L88.8792 64.2706L89.7002 65.3044L88.4788 64.9828L89.2998 66.0167L88.0783 65.6951L88.8643 66.5834L87.6429 66.2618L88.4638 67.2956L87.2424 66.974L88.0634 68.0078L86.877 67.8317L87.6629 68.72L86.5767 68.3659L87.2625 69.4322L86.0761 69.2561L86.8621 70.1445L85.6056 69.6774L86.5968 70.8241L86.2964 71.3583L86.807 71.6971L87.1424 71.3085L88.9095 72.1144L88.4289 71.3065C88.5902 71.362 88.749 71.4266 88.9045 71.4998V71.4998L88.3187 70.2554L89.4751 70.9006L88.7542 69.6887L90.2159 70.4143L89.3249 69.0895L90.4812 69.7346L89.8955 68.4902L91.2221 69.2483L91.0468 68.5208L91.6575 68.6816L90.9016 67.3242L92.2282 68.0823L91.5073 66.8704L92.8339 67.6285L92.113 66.4167L93.0992 66.9489L92.6837 65.8174L93.9101 66.7536L93.0841 65.1052L94.2054 65.6048L93.5196 64.5385L94.0552 63.7937L93.8149 63.3898L103.861 49.8863L102.464 48.8372Z" fill="#7DFE9D"/>
</svg>
