<svg width="226" height="104" viewBox="0 0 226 104" fill="none" xmlns="http://www.w3.org/2000/svg">
<path d="M103.887 60C103.426 60.1356 102.938 60.2576 102.422 60.3661C101.961 60.4474 101.433 60.5152 100.836 60.5694C100.267 60.6508 99.6431 60.6915 98.9652 60.6915C97.9619 60.6915 96.9043 60.5559 95.7926 60.2847C94.7079 60.0407 93.7046 59.5797 92.7827 58.9018C91.8879 58.1968 91.1422 57.2477 90.5456 56.0546C89.9762 54.8615 89.6915 53.3159 89.6915 51.4178C89.6915 48.6519 90.5321 45.8047 92.2133 42.8762C93.8944 39.9206 96.24 37.0191 99.2499 34.172C99.0872 33.711 98.9245 33.2771 98.7618 32.8704C98.5991 32.4365 98.4228 31.9891 98.233 31.5281H107.263C107.995 33.9957 108.727 36.7344 109.459 39.7443C110.083 42.3203 110.747 45.3302 111.452 48.774C112.157 52.2177 112.794 55.9597 113.364 60H106.124C105.771 57.8849 105.337 55.5936 104.822 53.1261C104.361 51.011 103.765 48.5841 103.033 45.8454C102.3 43.1067 101.406 40.2188 100.348 37.1818C98.3144 39.5409 96.823 41.6831 95.8739 43.6083C94.9249 45.5065 94.4503 47.2283 94.4503 48.774C94.4503 49.5603 94.5588 50.2925 94.7757 50.9704C95.0198 51.6483 95.3587 52.2448 95.7926 52.76C96.2264 53.2481 96.7688 53.6413 97.4195 53.9396C98.0703 54.2107 98.816 54.3463 99.6566 54.3463C100.118 54.3463 100.714 54.2921 101.446 54.1836C102.206 54.048 103.019 53.8311 103.887 53.5328V60ZM124.357 39.907C124.303 40.9374 124.262 42.1034 124.235 43.405C124.181 44.5438 124.14 45.8996 124.113 47.4724C124.113 49.018 124.113 50.7534 124.113 52.6787C124.113 53.8718 124.235 54.8344 124.479 55.5665C124.75 56.2715 125.089 56.8274 125.496 57.2342C125.903 57.6409 126.35 57.9121 126.838 58.0476C127.354 58.1832 127.855 58.251 128.343 58.251C128.967 58.251 129.536 58.1832 130.052 58.0476C130.594 57.8849 130.974 57.7629 131.19 57.6816C131.245 57.1393 131.285 56.5156 131.312 55.8106C131.34 55.1056 131.353 54.3056 131.353 53.4108C131.353 51.6483 131.245 49.5874 131.028 47.2283C130.838 44.8692 130.445 42.4288 129.848 39.907H138.959C138.986 40.3951 139.013 40.9645 139.041 41.6153C139.068 42.1576 139.095 42.8355 139.122 43.649C139.149 44.4354 139.163 45.3302 139.163 46.3335C139.163 48.1232 139.108 50.184 139 52.516C138.891 54.8208 138.661 57.3155 138.308 60C137.007 60.1085 135.909 60.2034 135.014 60.2847C134.119 60.3661 133.292 60.4339 132.533 60.4881C131.801 60.5694 131.068 60.6237 130.336 60.6508C129.604 60.6779 128.75 60.6915 127.774 60.6915C125.55 60.6915 123.693 60.461 122.201 60C120.737 59.5661 119.558 58.9696 118.663 58.2103C117.768 57.4511 117.131 56.5698 116.751 55.5665C116.372 54.5361 116.182 53.4379 116.182 52.2719C116.182 50.3196 116.263 48.3672 116.426 46.4149C116.588 44.4625 116.805 42.2932 117.077 39.907H124.357ZM142.932 40.1917C145.155 39.6223 147.189 39.1749 149.033 38.8495C150.904 38.5241 152.572 38.3614 154.036 38.3614C156.748 38.3614 158.795 38.9715 160.178 40.1917C161.561 41.4119 162.252 43.4321 162.252 46.2522C162.252 48.3672 162.184 50.5365 162.049 52.76C161.913 54.9564 161.71 57.3697 161.439 60H154.239C154.266 59.8644 154.28 59.7017 154.28 59.5119C154.28 59.3492 154.28 59.1594 154.28 58.9425C154.28 58.7255 154.294 58.4679 154.321 58.1697C153.48 59.0916 152.531 59.7424 151.473 60.122C150.416 60.5016 149.413 60.6915 148.464 60.6915C146.701 60.6915 145.291 60.2169 144.234 59.2679C143.203 58.2917 142.688 56.9901 142.688 55.3632C142.688 54.5497 142.878 53.7091 143.257 52.8414C143.637 51.9465 144.274 51.0653 145.169 50.1975C146.064 49.3298 147.257 48.4757 148.748 47.6351C150.267 46.7945 152.151 46.0081 154.402 45.276C154.294 44.11 153.995 43.2965 153.507 42.8355C153.046 42.3474 152.49 42.1034 151.84 42.1034C151.08 42.1034 150.267 42.3203 149.399 42.7542C148.531 43.188 147.718 43.6626 146.959 44.1778C146.064 44.8014 145.183 45.4929 144.315 46.2522L142.932 40.1917ZM154.402 53.6142C154.429 52.7465 154.443 51.8381 154.443 50.889C154.47 49.9128 154.483 48.8824 154.483 47.7978C153.833 48.0147 153.114 48.2859 152.328 48.6113C151.541 48.9366 150.809 49.3298 150.131 49.7908C149.48 50.2247 148.925 50.7263 148.464 51.2957C148.003 51.8381 147.772 52.4482 147.772 53.1261C147.772 53.8311 147.962 54.3327 148.342 54.631C148.721 54.9022 149.182 55.0378 149.725 55.0378C150.43 55.0378 151.202 54.8886 152.043 54.5903C152.884 54.2921 153.67 53.9667 154.402 53.6142ZM166.681 60C166.898 58.0476 167.007 55.9597 167.007 53.7362C167.007 51.8381 166.912 49.6959 166.722 47.3097C166.532 44.9235 166.126 42.4559 165.502 39.907H174.572C174.708 41.6695 174.789 43.6083 174.816 45.7234C174.843 47.5402 174.789 49.6688 174.654 52.1092C174.545 54.5497 174.301 57.1799 173.921 60H166.681ZM170.179 28.5996L174.979 33.5212L170.179 38.28L165.299 33.5212L170.179 28.5996ZM179.331 60C179.548 58.0476 179.656 55.9597 179.656 53.7362C179.656 51.8381 179.561 49.6959 179.371 47.3097C179.182 44.9235 178.788 42.4559 178.192 39.907C180.307 39.663 182.137 39.446 183.683 39.2562C185.229 39.0664 186.53 38.9037 187.588 38.7681C188.672 38.6325 189.554 38.5376 190.231 38.4834C190.909 38.4021 191.438 38.3614 191.818 38.3614C193.363 38.3343 194.746 38.5512 195.966 39.0122C197.187 39.446 198.217 40.0426 199.058 40.8018C199.898 41.5611 200.536 42.4559 200.969 43.4863C201.403 44.4896 201.62 45.5607 201.62 46.6996C201.62 48.7333 201.539 50.8483 201.376 53.0447C201.241 55.2411 201.051 57.5596 200.807 60H193.567C193.594 58.8882 193.635 57.6409 193.689 56.258C193.743 55.0649 193.784 53.6684 193.811 52.0686C193.838 50.4416 193.851 48.6519 193.851 46.6996C193.851 45.0455 193.594 43.8117 193.079 42.9982C192.591 42.1848 191.994 41.6424 191.289 41.3713C190.584 41.073 189.852 40.9645 189.093 41.0459C188.36 41.1272 187.75 41.2492 187.262 41.4119C187.316 42.1441 187.357 43.1338 187.384 44.3812C187.438 45.6014 187.452 47.025 187.425 48.6519C187.425 50.2518 187.357 52.0143 187.222 53.9396C187.086 55.8648 186.883 57.8849 186.611 60H179.331ZM214.464 60C212.864 60 211.508 59.8644 210.396 59.5933C209.312 59.295 208.43 58.834 207.752 58.2103C207.075 57.5867 206.586 56.7867 206.288 55.8106C205.99 54.8073 205.841 53.5871 205.841 52.1499C205.841 51.1466 205.854 50.2382 205.881 49.4247C205.909 48.6113 205.936 47.8249 205.963 47.0656C205.99 46.2793 206.017 45.4929 206.044 44.7065C206.071 43.8931 206.085 43.0118 206.085 42.0627H204.865V39.907H206.044C205.99 38.6054 205.949 37.2496 205.922 35.8396C205.922 34.4296 205.868 32.9924 205.759 31.5281H213.935C213.935 32.7212 213.935 34.0228 213.935 35.4329C213.935 36.8429 213.908 38.3343 213.854 39.907H216.375V42.0627H213.772C213.745 42.6864 213.704 43.405 213.65 44.2185C213.623 45.0319 213.569 45.8861 213.487 46.7809C213.433 47.6758 213.365 48.5706 213.284 49.4654C213.23 50.3602 213.162 51.2008 213.081 51.9872C212.972 52.9905 212.782 53.7362 212.511 54.2243C212.24 54.6853 211.955 55.0242 211.657 55.2411C211.386 55.4581 211.142 55.6479 210.925 55.8106C210.708 55.9461 210.6 56.1902 210.6 56.5427C210.6 56.8681 210.749 57.0986 211.047 57.2342C211.345 57.3697 211.698 57.4511 212.105 57.4782C212.511 57.4782 212.932 57.424 213.365 57.3155C213.799 57.207 214.165 57.0579 214.464 56.8681V60Z" fill="#7DFE9D"/>
<path d="M92.9047 86.4067C91.7387 86.4067 90.749 86.122 89.9355 85.5526C89.1491 84.956 88.756 84.1019 88.756 82.9901C88.756 81.797 89.0407 80.6853 89.6101 79.6548C90.2067 78.6244 90.9795 77.7296 91.9285 76.9704C92.8776 76.184 93.908 75.5739 95.0198 75.14C96.1586 74.7062 97.284 74.4892 98.3957 74.4892C99.5075 74.4892 100.321 74.6926 100.836 75.0993C101.378 75.5061 101.65 75.9942 101.65 76.5636C101.65 76.9432 101.541 77.3229 101.324 77.7025C101.107 78.055 100.809 78.2312 100.429 78.2312C100.185 78.2312 100.063 78.1363 100.063 77.9465C100.063 77.811 100.104 77.6889 100.185 77.5805C100.511 77.011 100.673 76.5094 100.673 76.0755C100.673 75.5332 100.389 75.262 99.8193 75.262C99.3583 75.262 98.7618 75.4383 98.0296 75.7908C97.4331 76.062 96.7959 76.4823 96.118 77.0517C95.4672 77.594 94.8571 78.2312 94.2876 78.9634C93.7182 79.6684 93.2437 80.4005 92.864 81.1598C92.5115 81.8919 92.3353 82.5834 92.3353 83.2342C92.3353 83.8578 92.5115 84.373 92.864 84.7798C93.2165 85.1865 93.7453 85.3899 94.4503 85.3899C94.9113 85.3899 95.4536 85.2814 96.0773 85.0645C96.7281 84.8476 97.4467 84.4951 98.233 84.007C98.8838 83.6002 99.5617 83.1121 100.267 82.5427C100.999 81.9733 101.704 81.3903 102.382 80.7937C103.06 80.1972 103.643 79.682 104.131 79.2481C104.293 79.0854 104.429 79.0041 104.538 79.0041C104.646 79.0041 104.7 79.0718 104.7 79.2074C104.7 79.3972 104.619 79.5599 104.456 79.6955C103.751 80.3463 102.978 81.0513 102.138 81.8106C101.297 82.5427 100.416 83.2342 99.4939 83.8849C98.5991 84.5357 97.7178 85.0645 96.8501 85.4712C95.4401 86.0949 94.1249 86.4067 92.9047 86.4067ZM104.207 86.0407C103.366 86.0407 102.715 85.7831 102.254 85.2679C101.793 84.7255 101.563 84.0341 101.563 83.1935C101.563 82.4071 101.766 81.5394 102.173 80.5903C102.607 79.6413 103.285 78.6787 104.207 77.7025C105.156 76.6721 106.335 75.845 107.745 75.2214C109.155 74.5706 110.498 74.2452 111.772 74.2452C112.802 74.2452 113.684 74.4757 114.416 74.9366C115.148 75.3705 115.636 75.9264 115.88 76.6043C116.178 76.6043 116.545 76.6856 116.978 76.8483C117.439 77.011 117.67 77.3093 117.67 77.7432C117.67 78.0414 117.521 78.3804 117.222 78.76C117.033 79.0312 116.694 79.4379 116.206 79.9802C115.745 80.5226 115.311 81.1056 114.904 81.7292C114.579 82.2173 114.321 82.6783 114.131 83.1121C113.941 83.5189 113.846 83.8714 113.846 84.1697C113.846 84.5764 114.05 84.7798 114.457 84.7798C114.918 84.7798 115.609 84.5222 116.531 84.007C117.534 83.4375 118.497 82.7867 119.419 82.0546C120.341 81.3225 121.059 80.7395 121.575 80.3056C121.71 80.1972 121.805 80.1429 121.859 80.1429C121.968 80.1429 122.022 80.2107 122.022 80.3463C122.022 80.509 121.954 80.6581 121.819 80.7937C121.575 81.0106 121.1 81.4174 120.395 82.0139C119.69 82.6105 118.876 83.2342 117.955 83.8849C117.06 84.5357 116.178 85.0645 115.311 85.4712C114.877 85.661 114.47 85.8102 114.091 85.9187C113.738 86 113.413 86.0407 113.114 86.0407C112.382 86.0407 111.826 85.8373 111.447 85.4306C111.067 84.9967 110.877 84.4408 110.877 83.7629C110.877 83.4918 110.918 83.207 110.999 82.9088C111.081 82.6105 111.176 82.3122 111.284 82.0139L111.569 81.3225C110.864 82.1902 110.159 82.9223 109.454 83.5189C108.749 84.0883 108.044 84.59 107.339 85.0238C106.742 85.3763 106.173 85.6339 105.63 85.7966C105.115 85.9593 104.641 86.0407 104.207 86.0407ZM105.468 84.9831C105.956 84.9831 106.661 84.6984 107.583 84.129C108.505 83.5324 109.576 82.6241 110.796 81.4038C110.959 81.2411 111.257 80.9564 111.691 80.5497C112.152 80.1158 112.64 79.6413 113.155 79.1261C113.67 78.5838 114.104 78.055 114.457 77.5398C114.836 76.9975 115.026 76.5501 115.026 76.1975C115.026 75.6823 114.579 75.4247 113.684 75.4247C112.897 75.4247 111.948 75.7366 110.837 76.3602C109.752 76.9568 108.708 77.8516 107.705 79.0447C106.674 80.265 105.915 81.3225 105.427 82.2173C104.966 83.085 104.735 83.7494 104.735 84.2103C104.735 84.7255 104.98 84.9831 105.468 84.9831ZM123.185 86.6915C122.317 86.6915 121.653 86.4339 121.192 85.9187C120.731 85.4034 120.5 84.6849 120.5 83.7629C120.5 82.8952 120.731 81.8784 121.192 80.7124L121.273 80.509L120.541 81.2005C120.432 81.3089 120.31 81.3632 120.175 81.3632C120.039 81.3632 119.971 81.3089 119.971 81.2005C119.971 81.0649 120.066 80.9022 120.256 80.7124C120.961 80.0887 121.68 79.4379 122.412 78.76C123.171 78.055 123.808 77.3907 124.324 76.767C124.134 76.8483 123.93 76.889 123.713 76.889C123.496 76.889 123.334 76.8348 123.225 76.7263C123.036 76.5907 122.941 76.3467 122.941 75.9942C122.941 75.6959 123.076 75.3841 123.347 75.0587C123.646 74.7333 124.242 74.4486 125.137 74.2045C125.327 74.1503 125.517 74.1096 125.706 74.0825C125.923 74.0554 126.127 74.0283 126.317 74.0011C127.184 72.7809 127.944 71.6556 128.594 70.6252C129.245 69.5677 129.76 68.8627 130.14 68.5101C130.303 68.3203 130.587 68.1576 130.994 68.0221C131.428 67.8865 131.875 67.778 132.336 67.6967C132.824 67.6153 133.204 67.5746 133.475 67.5746C134.37 67.5746 134.817 67.656 134.817 67.8187C134.817 67.9271 134.614 68.1848 134.207 68.5915C133.529 69.2423 132.73 70.0558 131.808 71.0319C130.913 71.981 129.991 73.0114 129.042 74.1232C129.828 74.2316 130.547 74.435 131.197 74.7333C131.875 75.0316 132.363 75.4112 132.662 75.8722C132.77 76.0077 132.824 76.1704 132.824 76.3602C132.824 76.5772 132.757 76.6856 132.621 76.6856C132.513 76.6856 132.391 76.6178 132.255 76.4823C131.686 75.9128 130.736 75.6281 129.408 75.6281C129.137 75.6281 128.852 75.6417 128.554 75.6688C128.282 75.6959 127.998 75.7366 127.699 75.7908C126.778 76.9839 125.937 78.177 125.178 79.3701C124.418 80.5632 123.876 81.675 123.551 82.7054C123.388 83.1935 123.307 83.6409 123.307 84.0476C123.307 84.4544 123.402 84.7933 123.591 85.0645C123.781 85.3085 124.066 85.4306 124.446 85.4306C124.69 85.4306 124.988 85.3628 125.34 85.2272C125.856 85.0374 126.452 84.7255 127.13 84.2917C127.808 83.8307 128.486 83.3155 129.164 82.7461C129.869 82.1766 130.52 81.6208 131.116 81.0784C131.74 80.5361 132.255 80.0751 132.662 79.6955C133.068 79.3159 133.299 79.099 133.353 79.0447C133.435 78.9634 133.502 78.9227 133.557 78.9227C133.665 78.9227 133.719 79.0041 133.719 79.1668C133.719 79.3566 133.638 79.5328 133.475 79.6955C133.204 79.9667 132.784 80.3734 132.214 80.9157C131.672 81.4581 131.035 82.0682 130.303 82.7461C129.598 83.3969 128.838 84.0205 128.025 84.6171C127.211 85.2136 126.384 85.7017 125.544 86.0813C124.73 86.4881 123.944 86.6915 123.185 86.6915ZM133.244 86.0407C132.404 86.0407 131.753 85.7831 131.292 85.2679C130.831 84.7255 130.6 84.0341 130.6 83.1935C130.6 82.4071 130.804 81.5394 131.21 80.5903C131.644 79.6413 132.322 78.6787 133.244 77.7025C134.193 76.6721 135.373 75.845 136.783 75.2214C138.193 74.5706 139.535 74.2452 140.81 74.2452C141.84 74.2452 142.721 74.4757 143.453 74.9366C144.186 75.3705 144.674 75.9264 144.918 76.6043C145.216 76.6043 145.582 76.6856 146.016 76.8483C146.477 77.011 146.707 77.3093 146.707 77.7432C146.707 78.0414 146.558 78.3804 146.26 78.76C146.07 79.0312 145.731 79.4379 145.243 79.9802C144.782 80.5226 144.348 81.1056 143.941 81.7292C143.616 82.2173 143.358 82.6783 143.169 83.1121C142.979 83.5189 142.884 83.8714 142.884 84.1697C142.884 84.5764 143.087 84.7798 143.494 84.7798C143.955 84.7798 144.646 84.5222 145.568 84.007C146.572 83.4375 147.534 82.7867 148.456 82.0546C149.378 81.3225 150.097 80.7395 150.612 80.3056C150.748 80.1972 150.843 80.1429 150.897 80.1429C151.005 80.1429 151.059 80.2107 151.059 80.3463C151.059 80.509 150.992 80.6581 150.856 80.7937C150.612 81.0106 150.137 81.4174 149.432 82.0139C148.727 82.6105 147.914 83.2342 146.992 83.8849C146.097 84.5357 145.216 85.0645 144.348 85.4712C143.914 85.661 143.508 85.8102 143.128 85.9187C142.775 86 142.45 86.0407 142.152 86.0407C141.42 86.0407 140.864 85.8373 140.484 85.4306C140.105 84.9967 139.915 84.4408 139.915 83.7629C139.915 83.4918 139.955 83.207 140.037 82.9088C140.118 82.6105 140.213 82.3122 140.321 82.0139L140.606 81.3225C139.901 82.1902 139.196 82.9223 138.491 83.5189C137.786 84.0883 137.081 84.59 136.376 85.0238C135.78 85.3763 135.21 85.6339 134.668 85.7966C134.153 85.9593 133.678 86.0407 133.244 86.0407ZM134.505 84.9831C134.993 84.9831 135.698 84.6984 136.62 84.129C137.542 83.5324 138.613 82.6241 139.833 81.4038C139.996 81.2411 140.294 80.9564 140.728 80.5497C141.189 80.1158 141.677 79.6413 142.192 79.1261C142.708 78.5838 143.142 78.055 143.494 77.5398C143.874 76.9975 144.063 76.5501 144.063 76.1975C144.063 75.6823 143.616 75.4247 142.721 75.4247C141.935 75.4247 140.986 75.7366 139.874 76.3602C138.789 76.9568 137.745 77.8516 136.742 79.0447C135.712 80.265 134.953 81.3225 134.464 82.2173C134.003 83.085 133.773 83.7494 133.773 84.2103C133.773 84.7255 134.017 84.9831 134.505 84.9831ZM153.28 86.2034C152.195 86.2034 151.436 85.9458 151.002 85.4306C150.568 84.8882 150.351 84.2646 150.351 83.5596C150.351 82.8817 150.473 82.1631 150.717 81.4038C150.988 80.6446 151.287 79.926 151.612 79.2481C151.26 79.6277 150.921 79.9802 150.595 80.3056C150.27 80.6039 149.999 80.8479 149.782 81.0378C149.673 81.1191 149.565 81.1598 149.456 81.1598C149.321 81.1598 149.253 81.092 149.253 80.9564C149.253 80.8208 149.334 80.6988 149.497 80.5903C150.066 80.1023 150.731 79.4379 151.49 78.5973C152.249 77.7567 152.954 76.9026 153.605 76.0348C154.147 75.3298 154.798 74.4486 155.557 73.391C156.317 72.3335 157.089 71.2217 157.876 70.0558C158.662 68.8627 159.34 67.778 159.91 66.8018C159.991 66.6391 160.072 66.4358 160.154 66.1917C160.262 65.9477 160.316 65.7307 160.316 65.5409C160.316 65.2698 160.208 65.1342 159.991 65.1342C159.937 65.1342 159.774 65.1884 159.503 65.2969C159.259 65.4054 159.015 65.5138 158.771 65.6223C158.527 65.7307 158.377 65.785 158.323 65.785C158.106 65.785 158.12 65.663 158.364 65.4189C158.798 65.0935 159.34 64.7817 159.991 64.4834C160.669 64.158 161.36 63.8869 162.065 63.6699C162.77 63.453 163.367 63.3445 163.855 63.3445C164.994 63.3445 165.563 63.7106 165.563 64.4427C165.563 64.8224 165.387 65.324 165.034 65.9477C164.736 66.4358 164.302 67.0188 163.733 67.6967C163.163 68.3474 162.526 69.0525 161.821 69.8117C161.143 70.5438 160.479 71.276 159.828 72.0081C159.177 72.7131 158.635 73.3368 158.201 73.8791C158.093 74.0147 157.822 74.3672 157.388 74.9366C156.981 75.5061 156.506 76.1975 155.964 77.011C155.449 77.7974 154.92 78.638 154.378 79.5328C153.863 80.4005 153.429 81.2411 153.076 82.0546C152.751 82.841 152.588 83.5053 152.588 84.0476C152.588 84.7798 152.941 85.1458 153.646 85.1458C154.107 85.1458 154.69 85.0103 155.395 84.7391C156.073 84.4951 156.778 84.129 157.51 83.6409C158.269 83.1257 159.001 82.5834 159.706 82.0139C160.438 81.4445 161.076 80.9022 161.618 80.387C162.187 79.8718 162.608 79.4786 162.879 79.2074C163.041 79.0447 163.177 78.9634 163.285 78.9634C163.394 78.9634 163.448 79.0312 163.448 79.1668C163.448 79.3023 163.38 79.4379 163.245 79.5735C162.811 80.0345 162.214 80.631 161.455 81.3632C160.723 82.0953 159.896 82.841 158.974 83.6002C158.079 84.3324 157.144 84.956 156.168 85.4712C155.191 85.9593 154.229 86.2034 153.28 86.2034ZM163.812 86.3661C162.755 86.3661 161.955 86.1085 161.412 85.5933C160.897 85.0509 160.639 84.3595 160.639 83.5189C160.639 83.0037 160.707 82.502 160.843 82.0139C160.978 81.5259 161.128 81.092 161.29 80.7124C161.1 80.9022 160.911 81.0784 160.721 81.2411C160.558 81.3767 160.423 81.4852 160.314 81.5665C160.206 81.6479 160.111 81.6885 160.029 81.6885C159.921 81.6885 159.867 81.6208 159.867 81.4852C159.867 81.2954 160.002 81.0784 160.273 80.8344C161.222 80.048 161.968 79.3566 162.51 78.76C163.053 78.1363 163.622 77.5669 164.219 77.0517C165.222 76.184 166.293 75.5061 167.432 75.018C168.571 74.5299 169.71 74.2859 170.849 74.2859C172.042 74.2859 172.977 74.5706 173.655 75.14C174.333 75.7095 174.672 76.5501 174.672 77.6618C174.672 78.2855 174.482 79.0041 174.103 79.8175C173.75 80.631 173.181 81.4716 172.394 82.3393C172.069 82.6918 171.703 83.0443 171.296 83.3969C170.889 83.7223 170.537 83.9663 170.239 84.129C171.567 83.9934 172.815 83.5324 173.981 82.7461C175.147 81.9326 176.191 81.1327 177.112 80.3463C177.248 80.265 177.343 80.2243 177.397 80.2243C177.533 80.2243 177.601 80.2921 177.601 80.4277C177.601 80.5361 177.533 80.6581 177.397 80.7937C176.231 81.9055 174.97 82.841 173.614 83.6002C172.286 84.3595 170.808 84.7255 169.181 84.6984C168.232 85.2136 167.296 85.6204 166.375 85.9187C165.48 86.2169 164.626 86.3661 163.812 86.3661ZM165.642 85.2272C166.022 85.2272 166.429 85.1594 166.863 85.0238C167.296 84.8882 167.73 84.712 168.164 84.4951C168.001 84.4951 167.839 84.4137 167.676 84.251C167.54 84.0883 167.473 83.8714 167.473 83.6002C167.473 83.0579 167.676 82.502 168.083 81.9326C168.49 81.3632 168.991 80.8751 169.588 80.4683C170.184 80.0616 170.767 79.8582 171.337 79.8582C171.662 79.8582 171.96 79.9531 172.232 80.1429C172.53 80.3056 172.693 80.5361 172.72 80.8344C173.181 80.3192 173.492 79.7633 173.655 79.1668C173.845 78.5702 173.94 78.0143 173.94 77.4991C173.94 76.7941 173.709 76.2653 173.248 75.9128C172.815 75.5332 172.218 75.3434 171.459 75.3434C170.727 75.3434 169.913 75.601 169.018 76.1162C168.151 76.6314 167.324 77.2957 166.537 78.1092C165.778 78.9227 165.141 79.804 164.626 80.753C164.137 81.7021 163.893 82.6105 163.893 83.4782C163.893 84.6442 164.476 85.2272 165.642 85.2272ZM172.492 96.86C170.838 96.86 169.469 96.6702 168.384 96.2905C167.3 95.9109 166.432 95.3957 165.781 94.7449C165.347 94.284 164.941 93.6738 164.561 92.9146C164.181 92.1825 163.992 91.5588 163.992 91.0436C163.992 90.8538 164.032 90.7589 164.114 90.7589C164.303 90.7589 164.425 90.8673 164.48 91.0843C164.48 91.1656 164.575 91.4774 164.764 92.0198C164.927 92.5621 165.239 93.1586 165.7 93.8094C166.161 94.4602 166.839 95.0296 167.734 95.5177C168.628 96.0058 169.794 96.2499 171.232 96.2499C172.94 96.2499 174.472 95.8431 175.828 95.0296C177.184 94.2433 178.39 93.1993 179.448 91.8977C180.532 90.6233 181.522 89.2268 182.417 87.7083C183.312 86.1898 184.166 84.6984 184.979 83.2342C185.793 81.7699 186.62 80.4819 187.461 79.3701C187.108 79.7497 186.661 80.2243 186.118 80.7937C185.603 81.336 185.047 81.8919 184.451 82.4614C183.854 83.0308 183.285 83.546 182.742 84.007C182.2 84.4679 181.753 84.8069 181.4 85.0238C180.804 85.3763 180.234 85.6339 179.692 85.7966C179.177 85.9593 178.702 86.0407 178.268 86.0407C177.428 86.0407 176.777 85.7831 176.316 85.2679C175.855 84.7255 175.624 84.0341 175.624 83.1935C175.624 82.4071 175.828 81.5394 176.234 80.5903C176.668 79.6413 177.346 78.6787 178.268 77.7025C179.217 76.6721 180.397 75.845 181.807 75.2214C183.217 74.5706 184.559 74.2452 185.834 74.2452C186.295 74.2452 186.742 74.2994 187.176 74.4079C187.61 74.4892 188.003 74.6384 188.355 74.8553C188.843 75.1536 189.196 75.4383 189.413 75.7095C189.657 75.9535 189.833 76.2518 189.942 76.6043C190.104 76.6043 190.362 76.6856 190.714 76.8483C191.067 76.9839 191.392 77.1602 191.691 77.3771C191.989 77.5669 192.138 77.7703 192.138 77.9872C192.138 78.0957 192.03 78.2177 191.813 78.3533C191.27 78.6244 190.66 79.2752 189.982 80.3056C189.304 81.3089 188.545 82.5156 187.705 83.9256C186.891 85.3085 185.969 86.7457 184.939 88.2371C183.935 89.7556 182.81 91.1656 181.563 92.4672C180.315 93.7688 178.933 94.8263 177.414 95.6398C175.923 96.4532 174.282 96.86 172.492 96.86ZM179.407 84.9831C179.949 84.9831 180.614 84.712 181.4 84.1697C181.997 83.7629 182.647 83.2613 183.352 82.6647C184.057 82.0411 184.749 81.3903 185.427 80.7124C186.105 80.0345 186.688 79.4108 187.176 78.8414C188.071 77.811 188.518 76.9704 188.518 76.3196C188.518 75.7772 188.193 75.5061 187.542 75.5061C186.891 75.5061 185.996 75.8179 184.857 76.4416C184.207 76.7941 183.515 77.2957 182.783 77.9465C182.051 78.5973 181.359 79.3023 180.709 80.0616C180.085 80.8208 179.583 81.5259 179.204 82.1766C178.77 82.963 178.553 83.6002 178.553 84.0883C178.553 84.6849 178.838 84.9831 179.407 84.9831ZM203.667 87.5863C203.314 87.4507 202.962 87.2067 202.609 86.8542C202.284 86.5016 202.121 85.8915 202.121 85.0238C202.121 84.2917 202.243 83.5324 202.487 82.7461C202.731 81.9326 203.043 81.1327 203.423 80.3463C202.718 81.2411 201.945 82.1224 201.104 82.9901C200.291 83.8578 199.464 84.5764 198.623 85.1458C197.81 85.6882 197.05 85.9593 196.345 85.9593C195.749 85.9593 195.247 85.7966 194.84 85.4712C194.461 85.1458 194.271 84.6442 194.271 83.9663C194.271 83.4782 194.366 82.9494 194.556 82.38C194.745 81.8106 195.084 81.1733 195.572 80.4683C196.061 79.7633 196.589 79.0718 197.159 78.3939C197.755 77.6889 198.271 77.0924 198.704 76.6043C199.003 76.2518 199.152 75.9671 199.152 75.7501C199.152 75.479 199.003 75.3434 198.704 75.3434C198.379 75.3434 197.918 75.5603 197.321 75.9942C196.698 76.4551 196.033 77.0246 195.328 77.7025C194.623 78.3533 193.959 78.9905 193.335 79.6142C192.712 80.2107 192.183 80.6853 191.749 81.0378C191.668 81.1191 191.586 81.1598 191.505 81.1598C191.369 81.1598 191.302 81.0784 191.302 80.9157C191.302 80.7802 191.424 80.6039 191.668 80.387C192.861 79.3566 193.851 78.4211 194.637 77.5805C195.423 76.7128 196.196 75.9806 196.955 75.3841C197.362 75.0587 197.782 74.8282 198.216 74.6926C198.65 74.5299 199.057 74.4486 199.436 74.4486C200.087 74.4486 200.63 74.6384 201.063 75.018C201.497 75.3976 201.714 75.9264 201.714 76.6043C201.714 77.1195 201.579 77.6618 201.308 78.2312C201.009 78.9092 200.602 79.5871 200.087 80.265C199.599 80.9157 199.125 81.553 198.664 82.1766C198.311 82.6918 198.054 83.1121 197.891 83.4375C197.728 83.7629 197.647 84.007 197.647 84.1697C197.647 84.3866 197.755 84.4951 197.972 84.4951C198.189 84.4951 198.501 84.373 198.908 84.129C199.314 83.8849 199.735 83.5731 200.169 83.1935C200.467 82.9223 200.725 82.6783 200.941 82.4614C201.185 82.2173 201.362 82.0411 201.47 81.9326C202.094 81.2818 202.718 80.5903 203.341 79.8582C203.965 79.099 204.507 78.4075 204.968 77.7838C205.321 77.3229 205.592 76.9704 205.782 76.7263C205.999 76.4823 206.229 76.2247 206.473 75.9535C206.934 75.4383 207.422 75.1671 207.937 75.14C208.236 75.14 208.575 75.2078 208.954 75.3434C209.361 75.4519 209.754 75.6823 210.134 76.0348C209.863 76.4145 209.456 76.9432 208.914 77.6211C208.398 78.2719 207.829 79.0041 207.205 79.8175C206.609 80.6039 206.026 81.4174 205.456 82.258C204.914 83.0986 204.467 83.8849 204.114 84.6171C203.762 85.3492 203.585 85.9864 203.585 86.5288C203.585 86.9084 203.694 87.2067 203.911 87.4236C204.019 87.5321 204.019 87.5863 203.911 87.5863C203.802 87.6134 203.721 87.6134 203.667 87.5863ZM213.306 86.4067C212.113 86.4067 211.109 86.122 210.296 85.5526C209.509 84.956 209.116 84.1019 209.116 82.9901C209.116 81.797 209.401 80.6853 209.97 79.6548C210.54 78.6244 211.299 77.7296 212.248 76.9704C213.197 76.184 214.228 75.5739 215.339 75.14C216.478 74.7062 217.604 74.4892 218.715 74.4892C219.827 74.4892 220.654 74.6926 221.196 75.0993C221.739 75.479 222.01 75.9535 222.01 76.5229C222.01 77.0653 221.752 77.6483 221.237 78.2719C220.749 78.8685 220.031 79.3972 219.081 79.8582C218.485 80.1294 217.793 80.3734 217.007 80.5903C216.248 80.7802 215.583 80.8751 215.014 80.8751C214.58 80.8751 214.363 80.8073 214.363 80.6717C214.363 80.5632 214.553 80.509 214.933 80.509C215.285 80.509 215.828 80.4141 216.56 80.2243C217.319 80.0074 218.051 79.7226 218.756 79.3701C219.542 78.9363 220.098 78.5024 220.424 78.0686C220.749 77.6347 220.912 77.2415 220.912 76.889C220.912 76.5636 220.776 76.2925 220.505 76.0755C220.261 75.8586 219.908 75.7501 219.448 75.7501C219.014 75.7501 218.526 75.8722 217.983 76.1162C217.197 76.4687 216.383 77.0517 215.543 77.8652C214.729 78.6515 214.051 79.5193 213.509 80.4683C212.967 81.4174 212.696 82.3258 212.696 83.1935C212.696 83.79 212.858 84.2917 213.184 84.6984C213.536 85.1052 214.051 85.3085 214.729 85.3085C215.434 85.3085 216.248 85.0916 217.17 84.6578C218.092 84.1968 219.027 83.6409 219.976 82.9901C220.925 82.3122 221.807 81.6343 222.62 80.9564C223.434 80.2785 224.084 79.7091 224.572 79.2481C224.735 79.0854 224.857 79.0041 224.939 79.0041C225.02 79.0041 225.061 79.0718 225.061 79.2074C225.061 79.3972 224.979 79.5599 224.816 79.6955C223.786 80.6446 222.661 81.6343 221.441 82.6647C220.247 83.6951 218.959 84.5764 217.577 85.3085C216.221 86.0136 214.797 86.3796 213.306 86.4067Z" fill="#F0C0D8"/>
<path d="M64.6 91C63.4667 91.3333 62.2667 91.6333 61 91.9C59.8667 92.1 58.5667 92.2667 57.1 92.4C55.7 92.6 54.1667 92.7 52.5 92.7C50.0333 92.7 47.4333 92.3667 44.7 91.7C42.0333 91.1 39.5667 89.9667 37.3 88.3C35.1 86.5667 33.2667 84.2333 31.8 81.3C30.4 78.3667 29.7 74.5667 29.7 69.9C29.7 63.1 31.7667 56.1 35.9 48.9C40.0333 41.6333 45.8 34.5 53.2 27.5C52.8 26.3667 52.4 25.3 52 24.3C51.6 23.2333 51.1667 22.1333 50.7 21H72.9C74.7 27.0667 76.5 33.8 78.3 41.2C79.8333 47.5333 81.4667 54.9333 83.2 63.4C84.9333 71.8667 86.5 81.0667 87.9 91H70.1C69.2333 85.8 68.1667 80.1667 66.9 74.1C65.7667 68.9 64.3 62.9333 62.5 56.2C60.7 49.4667 58.5 42.3667 55.9 34.9C50.9 40.7 47.2333 45.9667 44.9 50.7C42.5667 55.3667 41.4 59.6 41.4 63.4C41.4 65.3333 41.6667 67.1333 42.2 68.8C42.8 70.4667 43.6333 71.9333 44.7 73.2C45.7667 74.4 47.1 75.3667 48.7 76.1C50.3 76.7667 52.1333 77.1 54.2 77.1C55.3333 77.1 56.8 76.9667 58.6 76.7C60.4667 76.3667 62.4667 75.8333 64.6 75.1V91Z" fill="#1C3AA4"/>
<path d="M39.7459 64.777C40.5576 63.4241 42.5868 60.5832 44.6161 58.0128C46.7807 55.1718 48.6746 52.872 51.1098 50.031C52.5979 48.4076 52.3273 47.8664 47.8629 47.8664C45.1573 47.8664 43.2633 48.5429 40.8282 50.8427C37.7166 53.8189 34.6051 57.4716 32.5758 60.3126C30.276 63.4241 27.9761 67.0768 26.7586 69.3766C25.9469 71.2706 26.6233 71.8118 30.1407 71.5412C32.9817 71.4059 34.3345 71.1353 35.8226 70.0531C41.5046 65.4534 45.022 62.4771 51.2451 57.8775C55.033 55.0365 58.6857 52.7367 61.2561 51.3838C62.8795 50.5721 64.3676 50.1663 65.1793 50.4368C65.991 50.7074 65.8558 51.5191 65.3146 52.1955C63.8265 54.0895 61.7972 56.5246 59.768 58.8245C57.0623 62.2066 55.1683 64.6417 54.8977 67.2121C54.4919 69.6472 55.5741 72.0823 60.715 72.0823C65.4499 71.9471 70.726 68.5649 73.567 66.4004C76.4079 64.3711 80.737 60.4479 82.2252 59.095C82.9016 58.4186 83.1722 57.8775 82.9016 57.6069C82.4957 57.3363 82.0899 57.4716 81.2782 58.2833C79.7901 59.5009 76.5432 62.4771 74.514 63.9653C72.7553 65.4534 70.5907 66.8062 68.6967 67.8885C67.4792 68.4297 65.991 68.9708 65.3146 68.4297C64.6382 68.0238 64.7735 66.9415 65.7205 65.4534C66.5322 64.1006 67.885 62.3419 69.9143 59.7715C72.0788 57.0658 74.7845 53.9542 74.9198 51.5191C75.1904 48.9487 73.2964 47.4606 69.6437 47.4606C63.8265 47.4606 57.3328 51.6544 52.7332 55.0365C47.5924 58.6892 42.7221 62.6124 40.0164 65.0475L39.7459 64.777Z" fill="#7DFE9D"/>
<path d="M53.5016 53.7491C54.7667 51.7285 58.4355 48.5762 60.4597 52.1326C62.9898 56.5781 62.9898 61.8319 67.1014 59.003" stroke="#7DFE9D" stroke-width="1.01685"/>
<path d="M36.7379 47.8449C36.527 46.7672 36.8011 44.6926 39.5844 45.0159C43.0634 45.4201 40.5343 50.2699 37.6879 49.0574C34.8414 47.8449 33.5763 40.5704 28.1996 45.0159C23.8983 48.5724 21.1362 46.2285 20.2928 44.6119C18.3951 42.7259 13.8408 40.732 10.8045 47.8449C7.7683 54.9577 3.00309 50.0003 1.00002 46.6325" stroke="#7DFE9D" stroke-width="1.69475"/>
<path fill-rule="evenodd" clip-rule="evenodd" d="M84.7868 45.2625C84.7868 45.2625 82.4288 43.167 81.5188 39.8579L93.7067 27.4806L95 29.572L84.7868 45.2625Z" fill="#7DFE9D"/>
<path fill-rule="evenodd" clip-rule="evenodd" d="M88.328 34.9975L74.7327 49.3225L74.4434 48.7256L73.7202 49.5214C73.7202 49.5214 72.5878 48.264 72.5632 48.3277L73.1417 49.9194L71.9846 49.3225L72.5632 50.9141L71.4061 49.9194L71.9846 51.511L70.8276 50.7152L71.4061 52.3068L70.2491 51.511L70.8276 53.1027L69.6705 52.3068L70.2491 53.6996L69.092 52.9037L69.6705 54.4954L68.5135 53.6996L69.092 55.2912L67.935 54.6943L68.5135 56.0871L67.5011 55.2912L67.935 56.8829L66.7779 56.286L67.3564 57.6787L66.1994 56.6839L66.9225 58.4745L66.4886 59.0714L66.9225 59.6683L67.3564 59.2704L68.9474 60.862L68.6581 59.6683C68.8078 59.7903 68.9526 59.9231 69.092 60.0662V60.0662L68.8028 58.2756L69.8152 59.4693L69.3813 57.6787L70.683 59.0714L70.1044 57.0818L71.1169 58.2756L70.8276 56.485L71.9846 57.8777V56.8829L72.5632 57.2808L72.1293 55.2912L73.2863 56.6839L72.8524 54.8933L74.0095 56.286L73.5756 54.4954L74.4434 55.4902L74.2988 53.8985L75.3112 55.4902L74.8773 53.1027L75.8897 54.0975L75.4558 52.5058L76.179 51.71L76.0343 51.1131L89.4851 36.7881L88.328 34.9975Z" fill="#7DFE9D"/>
</svg>
